<svg xmlns="http://www.w3.org/2000/svg" xmlns:xlink="http://www.w3.org/1999/xlink" xmlns:inkscape="http://www.inkscape.org/namespaces/inkscape" version="1.1" width="1920" height="1080" viewBox="0 0 1920 1080">
<defs>
<clipPath id="clip_0">
<path transform="matrix(1,0,0,1,1711,1015)" d="M0 0H184V60H0Z"/>
</clipPath>
<clipPath id="clip_1">
<path transform="matrix(1,0,0,1,50,59.045965)" d="M0 0H1820V961.9081H0Z"/>
</clipPath>
<clipPath id="clip_2">
<path transform="matrix(1.1152177,0,0,1.1152177,50,60.519506)" d="M1130.5776 251.16016H1323.3626V358.6206H1130.5776Z"/>
</clipPath>
<clipPath id="clip_3">
<path transform="matrix(1.1152177,0,0,1.1152177,50,60.519506)" d="M586.0137 316.6206H966.2003V390.69593H586.0137Z"/>
</clipPath>
<clipPath id="clip_4">
<path transform="matrix(1.1152177,0,0,1.1152177,50,60.519506)" d="M1130.5776 21.432019H1230.8445V262.6206H1130.5776Z"/>
</clipPath>
<clipPath id="clip_5">
<path transform="matrix(1.1152177,0,0,1.1152177,50,60.519506)" d="M1338.4578 21.432019H1469.1194V127.43202H1338.4578Z"/>
</clipPath>
<clipPath id="clip_6">
<path transform="matrix(1.1152177,0,0,1.1152177,50,60.519506)" d="M859.4253 32H966.2003V262.6206H859.4253Z"/>
</clipPath>
<clipPath id="clip_7">
<path transform="matrix(1.1152177,0,0,1.1152177,50,60.519506)" d="M586.0137 64H695.048V390.6959H586.0137Z"/>
</clipPath>
<clipPath id="clip_8">
<path transform="matrix(1.1152177,0,0,1.1152177,50,60.519506)" d="M586.0137 316.6959H946.468V626.2789H586.0137Z"/>
</clipPath>
<clipPath id="clip_9">
<path transform="matrix(1.1152177,0,0,1.1152177,50,60.519506)" d="M1101.7133 520.2789H1298.5075V770.9824H1101.7133Z"/>
</clipPath>
<clipPath id="clip_10">
<path transform="matrix(1.1152177,0,0,1.1152177,50,60.519506)" d="M754.6302 520.2789H946.468V773.88687H754.6302Z"/>
</clipPath>
<clipPath id="clip_11">
<path transform="matrix(1.1152177,0,0,1.1152177,50,60.519506)" d="M754.6302 584.2789H946.468V805.88687H754.6302Z"/>
</clipPath>
<clipPath id="clip_12">
<path transform="matrix(1.1152177,0,0,1.1152177,50,60.519506)" d="M178.77359 147.37906H305.78727V390.69593H178.77359Z"/>
</clipPath>
<clipPath id="clip_13">
<path transform="matrix(1.1152177,0,0,1.1152177,50,60.519506)" d="M282.78727 316.6959H2102.7874V1278.604H282.78727Z"/>
</clipPath>
<clipPath id="clip_14">
<path transform="matrix(1.1152177,0,0,1.1152177,50,60.519506)" d="M282.78727 348.6959H2102.7874V1310.604H282.78727Z"/>
</clipPath>
<clipPath id="clip_15">
<path transform="matrix(1.1152177,0,0,1.1152177,50,60.519506)" d="M282.78727 380.6959H2102.7874V1342.604H282.78727Z"/>
</clipPath>
<clipPath id="clip_16">
<path transform="matrix(1.1152177,0,0,1.1152177,50,60.519506)" d="M282.78727 412.6959H2102.7874V1374.604H282.78727Z"/>
</clipPath>
<clipPath id="clip_17">
<path transform="matrix(1.1152177,0,0,1.1152177,50,60.519506)" d="M282.78727 444.6959H2102.7874V1406.604H282.78727Z"/>
</clipPath>
<clipPath id="clip_18">
<path transform="matrix(1.1152177,0,0,1.1152177,50,60.519506)" d="M282.78727 476.6959H2102.7874V1438.604H282.78727Z"/>
</clipPath>
<clipPath id="clip_19">
<path transform="matrix(1.1152177,0,0,1.1152177,50,60.519506)" d="M282.78727 508.6959H2102.7874V1470.604H282.78727Z"/>
</clipPath>
<clipPath id="clip_20">
<path transform="matrix(1.1152177,0,0,1.1152177,50,60.519506)" d="M282.78727 540.6959H2102.7874V1502.604H282.78727Z"/>
</clipPath>
<clipPath id="clip_21">
<path transform="matrix(1.1152177,0,0,1.1152177,50,60.519506)" d="M1300.3626 251.16016H3120.3626V1213.0682H1300.3626Z"/>
</clipPath>
<clipPath id="clip_22">
<path transform="matrix(1.1152177,0,0,1.1152177,50,60.519506)" d="M1300.3626 283.16017H3120.3626V1245.0682H1300.3626Z"/>
</clipPath>
<clipPath id="clip_23">
<path transform="matrix(1.1152177,0,0,1.1152177,50,60.519506)" d="M1300.3626 315.16017H3120.3626V1277.0682H1300.3626Z"/>
</clipPath>
<clipPath id="clip_24">
<path transform="matrix(1.1152177,0,0,1.1152177,50,60.519506)" d="M1300.3626 347.16017H3120.3626V1309.0682H1300.3626Z"/>
</clipPath>
<clipPath id="clip_25">
<path transform="matrix(1.1152177,0,0,1.1152177,50,60.519506)" d="M943.2003 188.6206H2763.2003V1150.5287H943.2003Z"/>
</clipPath>
<clipPath id="clip_26">
<path transform="matrix(1.1152177,0,0,1.1152177,50,60.519506)" d="M943.2003 220.6206H2763.2003V1182.5287H943.2003Z"/>
</clipPath>
<clipPath id="clip_27">
<path transform="matrix(1.1152177,0,0,1.1152177,50,60.519506)" d="M943.2003 252.6206H2763.2003V1214.5287H943.2003Z"/>
</clipPath>
<clipPath id="clip_28">
<path transform="matrix(1.1152177,0,0,1.1152177,50,60.519506)" d="M943.2003 284.6206H2763.2003V1246.5287H943.2003Z"/>
</clipPath>
<clipPath id="clip_29">
<path transform="matrix(1.1152177,0,0,1.1152177,50,60.519506)" d="M943.2003 316.6206H2763.2003V1278.5287H943.2003Z"/>
</clipPath>
<clipPath id="clip_30">
<path transform="matrix(1.1152177,0,0,1.1152177,50,60.519506)" d="M943.2003 348.6206H2763.2003V1310.5287H943.2003Z"/>
</clipPath>
<clipPath id="clip_31">
<path transform="matrix(1.1152177,0,0,1.1152177,50,60.519506)" d="M943.2003 380.6206H2763.2003V1342.5287H943.2003Z"/>
</clipPath>
<clipPath id="clip_32">
<path transform="matrix(1.1152177,0,0,1.1152177,50,60.519506)" d="M1446.1194 21.432019H3266.1195V983.3401H1446.1194Z"/>
</clipPath>
<clipPath id="clip_33">
<path transform="matrix(1.1152177,0,0,1.1152177,50,60.519506)" d="M1446.1194 53.43202H3266.1195V1015.3401H1446.1194Z"/>
</clipPath>
<clipPath id="clip_34">
<path transform="matrix(1.1152177,0,0,1.1152177,50,60.519506)" d="M1446.1194 85.432018H3266.1195V1047.3401H1446.1194Z"/>
</clipPath>
<clipPath id="clip_35">
<path transform="matrix(1.1152177,0,0,1.1152177,50,60.519506)" d="M1207.8446 21.432019H3027.8448V983.3401H1207.8446Z"/>
</clipPath>
<clipPath id="clip_36">
<path transform="matrix(1.1152177,0,0,1.1152177,50,60.519506)" d="M1207.8446 53.43202H3027.8448V1015.3401H1207.8446Z"/>
</clipPath>
<clipPath id="clip_37">
<path transform="matrix(1.1152177,0,0,1.1152177,50,60.519506)" d="M1207.8446 85.432018H3027.8448V1047.3401H1207.8446Z"/>
</clipPath>
<clipPath id="clip_38">
<path transform="matrix(1.1152177,0,0,1.1152177,50,60.519506)" d="M672.048 0H2492.0479V961.9081H672.048Z"/>
</clipPath>
<clipPath id="clip_39">
<path transform="matrix(1.1152177,0,0,1.1152177,50,60.519506)" d="M672.048 32H2492.0479V993.9081H672.048Z"/>
</clipPath>
<clipPath id="clip_40">
<path transform="matrix(1.1152177,0,0,1.1152177,50,60.519506)" d="M672.048 64H2492.0479V1025.9081H672.048Z"/>
</clipPath>
<clipPath id="clip_41">
<path transform="matrix(1.1152177,0,0,1.1152177,50,60.519506)" d="M672.048 96H2492.0479V1057.9081H672.048Z"/>
</clipPath>
<clipPath id="clip_42">
<path transform="matrix(1.1152177,0,0,1.1152177,50,60.519506)" d="M672.048 128H2492.0479V1089.9081H672.048Z"/>
</clipPath>
<clipPath id="clip_43">
<path transform="matrix(1.1152177,0,0,1.1152177,50,60.519506)" d="M672.048 160H2492.0479V1121.9081H672.048Z"/>
</clipPath>
<clipPath id="clip_44">
<path transform="matrix(1.1152177,0,0,1.1152177,50,60.519506)" d="M923.468 520.2789H2743.468V1482.187H923.468Z"/>
</clipPath>
<clipPath id="clip_45">
<path transform="matrix(1.1152177,0,0,1.1152177,50,60.519506)" d="M923.468 552.2789H2743.468V1514.187H923.468Z"/>
</clipPath>
<clipPath id="clip_46">
<path transform="matrix(1.1152177,0,0,1.1152177,50,60.519506)" d="M923.468 584.2789H2743.468V1546.187H923.468Z"/>
</clipPath>
<clipPath id="clip_47">
<path transform="matrix(1.1152177,0,0,1.1152177,50,60.519506)" d="M923.468 616.2789H2743.468V1578.187H923.468Z"/>
</clipPath>
<clipPath id="clip_48">
<path transform="matrix(1.1152177,0,0,1.1152177,50,60.519506)" d="M923.468 648.2789H2743.468V1610.187H923.468Z"/>
</clipPath>
<clipPath id="clip_49">
<path transform="matrix(1.1152177,0,0,1.1152177,50,60.519506)" d="M1275.5075 664.9824H3095.5074V1626.8905H1275.5075Z"/>
</clipPath>
<clipPath id="clip_50">
<path transform="matrix(1.1152177,0,0,1.1152177,50,60.519506)" d="M1275.5075 696.9824H3095.5074V1658.8905H1275.5075Z"/>
</clipPath>
<clipPath id="clip_51">
<path transform="matrix(1.1152177,0,0,1.1152177,50,60.519506)" d="M1275.5075 728.9824H3095.5074V1690.8905H1275.5075Z"/>
</clipPath>
<clipPath id="clip_52">
<path transform="matrix(1.1152177,0,0,1.1152177,50,60.519506)" d="M1275.5075 760.9824H3095.5074V1722.8905H1275.5075Z"/>
</clipPath>
<clipPath id="clip_53">
<path transform="matrix(1.1152177,0,0,1.1152177,50,60.519506)" d="M1275.5075 792.9824H3095.5074V1754.8905H1275.5075Z"/>
</clipPath>
<clipPath id="clip_54">
<path transform="matrix(1.1152177,0,0,1.1152177,50,60.519506)" d="M521.9509 667.88687H2341.951V1629.7949H521.9509Z"/>
</clipPath>
<clipPath id="clip_55">
<path transform="matrix(1.1152177,0,0,1.1152177,50,60.519506)" d="M521.9509 699.88687H2341.951V1661.7949H521.9509Z"/>
</clipPath>
<clipPath id="clip_56">
<path transform="matrix(1.1152177,0,0,1.1152177,50,60.519506)" d="M521.9509 731.88687H2341.951V1693.7949H521.9509Z"/>
</clipPath>
<clipPath id="clip_57">
<path transform="matrix(1.1152177,0,0,1.1152177,50,60.519506)" d="M521.9509 763.88687H2341.951V1725.7949H521.9509Z"/>
</clipPath>
<clipPath id="clip_58">
<path transform="matrix(1.1152177,0,0,1.1152177,50,60.519506)" d="M521.9509 795.88687H2341.951V1757.7949H521.9509Z"/>
</clipPath>
<clipPath id="clip_59">
<path transform="matrix(1.1152177,0,0,1.1152177,50,60.519506)" d="M521.9509 827.88687H2341.951V1789.7949H521.9509Z"/>
</clipPath>
<clipPath id="clip_60">
<path transform="matrix(1.1152177,0,0,1.1152177,50,60.519506)" d="M0 115.37906H1820V1077.2871H0Z"/>
</clipPath>
<clipPath id="clip_61">
<path transform="matrix(1.1152177,0,0,1.1152177,50,60.519506)" d="M0 147.37906H1820V1109.2871H0Z"/>
</clipPath>
<clipPath id="clip_62">
<path transform="matrix(1.1152177,0,0,1.1152177,50,60.519506)" d="M0 179.37906H1820V1141.2871H0Z"/>
</clipPath>
<clipPath id="clip_63">
<path transform="matrix(1.1152177,0,0,1.1152177,50,60.519506)" d="M0 211.37906H1820V1173.2871H0Z"/>
</clipPath>
<clipPath id="clip_64">
<path transform="matrix(1.1152177,0,0,1.1152177,50,60.519506)" d="M0 243.37906H1820V1205.2871H0Z"/>
</clipPath>
<clipPath id="clip_65">
<path transform="matrix(1.1152177,0,0,1.1152177,50,60.519506)" d="M0 275.37907H1820V1237.2871H0Z"/>
</clipPath>
</defs>
<path transform="matrix(1,0,0,-1,0,1080)" d="M0 1080H1920V0H0Z" fill="#fafafa"/>
<g clip-path="url(#clip_0)">
<path transform="matrix(.2,0,0,.2,1711,1015)" d="M211.9 68.8H159.7V147.6H242.4V99.3C242.4 82.5 228.8 68.8 211.9 68.8Z" fill="#428cff"/>
<path transform="matrix(.2,0,0,.2,1711,1015)" d="M242.4 147.6H159.7V228.8H211.9C228.7 228.8 242.4 215.1 242.4 198.3V147.6Z" fill="#2670de"/>
<path transform="matrix(.2,0,0,.2,1711,1015)" d="M159.7 68.8H113.1C96.3 68.8 82.6 82.5 82.6 99.3V198.3C82.6 215.1 96.3 228.8 113.1 228.8H159.7V68.8Z" fill="#2161cf"/>
<path transform="matrix(.2,0,0,.2,1711,1015)" d="M135.9 165.1H113.9C110.5 165.1 107.8 162.4 107.8 159V137C107.8 133.6 110.5 130.9 113.9 130.9H135.9C139.3 130.9 142 133.6 142 137V159C142 162.4 139.2 165.1 135.9 165.1ZM185 92.8H207C210.4 92.8 213.1 95.5 213.1 98.9V120.9C213.1 124.299999 210.4 127 207 127H185C181.6 127 178.9 124.299999 178.9 120.9V98.9C178.9 95.5 181.7 92.8 185 92.8ZM185 171H207C210.4 171 213.1 173.7 213.1 177.1V199.1C213.1 202.5 210.4 205.2 207 205.2H185C181.6 205.2 178.9 202.5 178.9 199.1V177.1C178.9 173.7 181.7 171 185 171Z" fill="#ffffff"/>
<path transform="matrix(.2,0,0,.2,1711,1015)" d="M126.076 151.65 192.116 103.89 196.862 110.454 130.823 158.214Z" fill="#ffffff"/>
<path transform="matrix(.2,0,0,.2,1711,1015)" d="M125.826999 143.874 130.8 137.48 194.819 187.268 189.846 193.662Z" fill="#ffffff"/>
<path transform="matrix(.2,0,0,.2,1711,1015)" d="M344.9 182.1H335.9V175.3H335.7C334 177.8 331.6 179.8 328.6 181.2 325.6 182.6 322.5 183.3 319.3 183.3 315.6 183.3 312.3 182.7 309.4 181.4 306.4 180.1 303.9 178.4 301.8 176.1 299.7 173.8 298.1 171.2 297 168.2 295.9 165.2 295.3 161.9 295.3 158.4 295.3 154.9 295.9 151.6 297 148.6 298.1 145.6 299.7 142.9 301.8 140.7 303.9 138.5 306.4 136.7 309.4 135.5 312.4 134.2 315.7 133.6 319.3 133.6 322.7 133.6 325.9 134.3 328.9 135.7 331.9 137.1 334.2 139.1 335.8 141.5H336V106.6H345V182.1H344.9ZM320.3 174.9C322.7 174.9 324.9 174.5 326.8 173.7 328.7 172.9 330.4 171.7 331.7 170.3 333 168.9 334.1 167.1 334.8 165.1 335.5 163.1 335.9 160.9 335.9 158.5 335.9 156.1 335.5 153.9 334.8 151.9 334.1 149.9 333 148.1 331.7 146.7 330.4 145.3 328.7 144.1 326.8 143.3 324.9 142.5 322.7 142.1 320.3 142.1 317.9 142.1 315.7 142.5 313.8 143.3 311.9 144.1 310.2 145.3 308.9 146.7 307.6 148.1 306.5 149.9 305.8 151.9 305.1 153.9 304.7 156.1 304.7 158.5 304.7 160.9 305.1 163.1 305.8 165.1 306.5 167.1 307.6 168.9 308.9 170.3 310.2 171.7 311.9 172.9 313.8 173.7 315.8 174.5 317.9 174.9 320.3 174.9ZM358.4 106.6H367.4V141.5H367.6C369.2 139 371.5 137.1 374.5 135.7 377.5 134.3 380.7 133.6 384.1 133.6 387.8 133.6 391.1 134.2 394 135.5 397 136.8 399.5 138.5 401.6 140.7 403.7 142.9 405.3 145.6 406.4 148.6 407.5 151.6 408.1 154.9 408.1 158.4 408.1 161.9 407.5 165.2 406.4 168.2 405.3 171.2 403.7 173.8 401.6 176.1 399.5 178.4 397 180.1 394 181.4 391 182.7 387.7 183.3 384.1 183.3 380.9 183.3 377.8 182.6 374.8 181.2 371.8 179.8 369.4 177.8 367.7 175.3H367.5V182.1H358.5V106.6H358.4ZM383 174.9C385.4 174.9 387.6 174.5 389.5 173.7 391.4 172.9 393.1 171.7 394.4 170.3 395.7 168.9 396.8 167.1 397.5 165.1 398.2 163.1 398.6 160.9 398.6 158.5 398.6 156.1 398.2 153.9 397.5 151.9 396.8 149.9 395.7 148.1 394.4 146.7 393.1 145.3 391.4 144.1 389.5 143.3 387.6 142.5 385.4 142.1 383 142.1 380.6 142.1 378.4 142.5 376.5 143.3 374.6 144.1 372.9 145.3 371.6 146.7 370.3 148.1 369.2 149.9 368.5 151.9 367.8 153.9 367.4 156.1 367.4 158.5 367.4 160.9 367.8 163.1 368.5 165.1 369.2 167.1 370.3 168.9 371.6 170.3 372.9 171.7 374.6 172.9 376.5 173.7 378.4 174.5 380.6 174.9 383 174.9ZM466.9 182.1H457.9V175.3H457.7C456 177.8 453.6 179.8 450.6 181.2 447.6 182.6 444.5 183.3 441.3 183.3 437.6 183.3 434.3 182.7 431.4 181.4 428.4 180.1 425.9 178.4 423.8 176.1 421.7 173.8 420.1 171.2 419 168.2 417.9 165.2 417.3 161.9 417.3 158.4 417.3 154.9 417.9 151.6 419 148.6 420.1 145.6 421.7 142.9 423.8 140.7 425.9 138.5 428.4 136.7 431.4 135.5 434.4 134.2 437.7 133.6 441.3 133.6 444.7 133.6 447.9 134.3 450.9 135.7 453.9 137.1 456.2 139.1 457.8 141.5H458V106.6H467V182.1H466.9ZM442.3 174.9C444.7 174.9 446.9 174.5 448.8 173.7 450.7 172.9 452.4 171.7 453.7 170.3 455 168.9 456.1 167.1 456.8 165.1 457.5 163.1 457.9 160.9 457.9 158.5 457.9 156.1 457.5 153.9 456.8 151.9 456.1 149.9 455 148.1 453.7 146.7 452.4 145.3 450.7 144.1 448.8 143.3 446.9 142.5 444.7 142.1 442.3 142.1 439.9 142.1 437.7 142.5 435.8 143.3 433.9 144.1 432.2 145.3 430.9 146.7 429.6 148.1 428.5 149.9 427.8 151.9 427.1 153.9 426.7 156.1 426.7 158.5 426.7 160.9 427.1 163.1 427.8 165.1 428.5 167.1 429.6 168.9 430.9 170.3 432.2 171.7 433.9 172.9 435.8 173.7 437.7 174.5 439.9 174.9 442.3 174.9ZM479 117.8C479 116 479.6 114.5 480.9 113.2 482.2 111.9 483.7 111.3 485.5 111.3 487.3 111.3 488.8 111.9 490.1 113.2 491.4 114.5 492 116 492 117.8 492 119.6 491.4 121.1 490.1 122.4 488.8 123.7 487.3 124.3 485.5 124.3 483.7 124.3 482.2 123.7 480.9 122.4 479.7 121.1 479 119.6 479 117.8ZM481.1 134.8H490.1V182.1H481.1V134.8ZM504.6 140.5C507.1 138.2 510.1 136.4 513.4 135.3 516.7 134.1 520.1 133.6 523.4 133.6 526.9 133.6 529.8 134 532.3 134.9 534.8 135.8 536.8 136.9 538.4 138.4 540 139.9 541.2 141.5 541.9 143.4 542.7 145.3 543 147.3 543 149.3V173.5C543 175.2 543 176.7 543.1 178.1 543.2 179.5 543.3 180.8 543.4 182.1H535.4C535.2 179.7 535.1 177.3 535.1 174.9H535C533 178 530.6 180.1 527.9 181.4 525.2 182.7 522 183.3 518.4 183.3 516.2 183.3 514.1 183 512.1 182.4 510.1 181.8 508.4 180.9 506.9 179.7 505.4 178.5 504.2 177 503.4 175.3 502.5 173.5 502.1 171.5 502.1 169.2 502.1 166.1 502.8 163.6 504.1 161.5 505.5 159.4 507.3 157.8 509.7 156.5 512.1 155.2 514.8 154.3 518 153.7 521.2 153.1 524.5 152.9 528.1 152.9H534.7V150.9C534.7 149.7 534.5 148.5 534 147.3 533.5 146.1 532.8 145 531.9 144.1 531 143.1 529.8 142.4 528.4 141.8 527 141.2 525.3 141 523.4 141 521.7 141 520.2 141.2 518.9 141.5 517.6 141.8 516.4 142.2 515.4 142.7 514.3 143.2 513.4 143.8 512.5 144.4 511.6 145.1 510.8 145.7 510 146.3L504.6 140.5ZM529.9 159.3C527.8 159.3 525.6 159.4 523.4 159.6 521.2 159.8 519.1 160.3 517.3 160.9 515.5 161.6 514 162.5 512.8 163.7 511.6 164.9 511.1 166.4 511.1 168.3 511.1 171 512 173 513.8 174.2 515.6 175.4 518.1 176 521.2 176 523.7 176 525.8 175.6 527.5 174.8 529.2 174 530.6 172.9 531.7 171.6 532.8 170.3 533.5 168.8 534 167.2 534.5 165.6 534.7 164 534.7 162.4V159.4H529.9V159.3ZM603.6 181.7C603.6 185.3 603 188.6 601.8 191.5 600.6 194.5 598.8 197 596.6 199.2 594.3 201.4 591.6 203 588.4 204.2 585.2 205.4 581.7 206 577.8 206 573.3 206 569.1 205.4 565.4 204.1 561.6 202.8 558.1 200.6 554.7 197.5L560.8 189.9C563.1 192.4 565.7 194.3 568.4 195.6 571.1 196.9 574.2 197.5 577.7 197.5 581 197.5 583.8 197 586 196.1 588.2 195.1 589.9 193.9 591.2 192.4 592.5 190.9 593.4 189.1 593.9 187.2 594.4 185.2 594.7 183.3 594.7 181.3V174.3H594.4C592.7 177.2 590.3 179.3 587.4 180.6 584.4 182 581.3 182.6 578.1 182.6 574.6 182.6 571.4 182 568.5 180.8 565.5 179.6 563 177.9 560.9 175.7 558.8 173.5 557.1 171 555.9 168 554.7 165 554.1 161.8 554.1 158.4 554.1 154.9 554.7 151.7 555.8 148.7 556.9 145.7 558.5 143 560.6 140.8 562.7 138.5 565.2 136.8 568.2 135.5 571.2 134.2 574.5 133.6 578.1 133.6 581.3 133.6 584.4 134.3 587.4 135.7 590.4 137.1 592.8 139.1 594.5 141.6H594.7V134.8H603.7L603.6 181.7ZM579.1 141.9C576.7 141.9 574.5 142.3 572.6 143.1 570.7 143.9 569 145.1 567.7 146.5 566.4 147.9 565.3 149.7 564.6 151.7 563.9 153.7 563.5 155.9 563.5 158.3 563.5 163.1 564.9 166.9 567.7 169.8 570.5 172.7 574.3 174.1 579.1 174.1 583.9 174.1 587.7 172.7 590.5 169.8 593.3 166.9 594.7 163.1 594.7 158.3 594.7 155.9 594.3 153.7 593.6 151.7 592.9 149.7 591.8 147.9 590.5 146.5 589.2 145.1 587.5 143.9 585.6 143.1 583.6 142.4 581.5 141.9 579.1 141.9ZM617.2 134.8H626.2V142.1H626.4C627 140.8 627.8 139.7 628.8 138.7 629.8 137.7 630.9 136.8 632.1 136.1 633.3 135.4 634.7 134.8 636.1 134.4 637.6 134 639 133.8 640.5 133.8 642 133.8 643.3 134 644.5 134.4L644.1 144.1C643.4 143.9 642.6 143.7 641.9 143.6 641.2 143.5 640.4 143.4 639.7 143.4 635.3 143.4 631.9 144.6 629.6 147.1 627.3 149.6 626.1 153.4 626.1 158.6V182.4H617.1L617.2 134.8ZM654.3 140.5C656.8 138.2 659.8 136.4 663.1 135.3 666.4 134.1 669.8 133.6 673.1 133.6 676.6 133.6 679.5 134 682 134.9 684.5 135.8 686.5 136.9 688.1 138.4 689.7 139.9 690.9 141.5 691.6 143.4 692.4 145.3 692.7 147.3 692.7 149.3V173.5C692.7 175.2 692.7 176.7 692.8 178.1 692.9 179.5 693 180.8 693.1 182.1H685.1C684.9 179.7 684.8 177.3 684.8 174.9H684.6C682.6 178 680.2 180.1 677.5 181.4 674.8 182.7 671.6 183.3 668 183.3 665.8 183.3 663.7 183 661.7 182.4 659.7 181.8 658 180.9 656.5 179.7 655 178.5 653.8 177 653 175.3 652.1 173.5 651.7 171.5 651.7 169.2 651.7 166.1 652.4 163.6 653.7 161.5 655.1 159.4 656.9 157.8 659.3 156.5 661.7 155.2 664.4 154.3 667.6 153.7 670.8 153.1 674.1 152.9 677.7 152.9H684.3V150.9C684.3 149.7 684.1 148.5 683.6 147.3 683.1 146.1 682.4 145 681.5 144.1 680.6 143.1 679.4 142.4 678 141.8 676.6 141.2 674.9 141 673 141 671.3 141 669.8 141.2 668.5 141.5 667.2 141.8 666 142.2 665 142.7 663.9 143.2 663 143.8 662.1 144.4 661.2 145.1 660.4 145.7 659.6 146.3L654.3 140.5ZM679.7 159.3C677.6 159.3 675.4 159.4 673.2 159.6 671 159.8 668.9 160.3 667.1 160.9 665.3 161.6 663.8 162.5 662.6 163.7 661.4 164.9 660.9 166.4 660.9 168.3 660.9 171 661.8 173 663.6 174.2 665.4 175.4 667.9 176 671 176 673.5 176 675.6 175.6 677.3 174.8 679 174 680.4 172.9 681.5 171.6 682.6 170.3 683.3 168.8 683.8 167.2 684.3 165.6 684.5 164 684.5 162.4V159.4H679.7V159.3ZM705.9 134.8H714.3V142.2H714.5C714.7 141.5 715.2 140.7 716 139.7 716.8 138.7 717.9 137.8 719.2 136.9 720.5 136 722 135.2 723.8 134.6 725.6 134 727.5 133.7 729.6 133.7 733.1 133.7 736.1 134.4 738.5 135.9 740.9 137.4 742.9 139.6 744.4 142.5 745.9 139.6 748.1 137.4 750.9 135.9 753.7 134.4 756.5 133.7 759.4 133.7 763.1 133.7 766.1 134.3 768.4 135.5 770.7 136.7 772.6 138.3 773.9 140.2 775.2 142.2 776.1 144.4 776.6 146.9 777.1 149.4 777.3 152 777.3 154.6V182.2H768.3V155.8C768.3 154 768.2 152.3 768 150.6 767.8 148.9 767.3 147.5 766.6 146.2 765.9 144.9 764.8 143.9 763.5 143.2 762.2 142.4 760.4 142.1 758.2 142.1 753.9 142.1 750.8 143.4 748.9 146.1 747 148.8 746.1 152.2 746.1 156.4V182.3H737.1V157.5C737.1 155.2 737 153.2 736.8 151.3 736.6 149.4 736.1 147.8 735.4 146.5 734.7 145.1 733.7 144.1 732.4 143.3 731.1 142.5 729.4 142.2 727.2 142.2 725.6 142.2 724.1 142.5 722.6 143.1 721.1 143.7 719.8 144.7 718.7 145.9 717.6 147.2 716.7 148.8 716 150.7 715.3 152.7 715 155 715 157.6V182.2H706V134.8H705.9Z" fill="#2161cf"/>
<path transform="matrix(.2,0,0,.2,1711,1015)" d="M798.1 182.7C796.3 182.7 794.8 182.1 793.5 180.8 792.2 179.5 791.6 178 791.6 176.2 791.6 174.4 792.2 172.9 793.5 171.6 794.8 170.3 796.3 169.7 798.1 169.7 799.9 169.7 801.4 170.3 802.7 171.6 804 172.9 804.6 174.4 804.6 176.2 804.6 178 804 179.5 802.7 180.8 801.4 182 799.9 182.7 798.1 182.7ZM817.3 117.799999C817.3 116 817.9 114.5 819.2 113.2 820.5 111.9 822 111.299999 823.8 111.299999 825.6 111.299999 827.1 111.9 828.4 113.2 829.7 114.5 830.3 116 830.3 117.799999 830.3 119.6 829.7 121.1 828.4 122.4 827.1 123.7 825.6 124.299999 823.8 124.299999 822 124.299999 820.5 123.7 819.2 122.4 818 121.1 817.3 119.6 817.3 117.799999ZM819.4 134.8H828.4V182.1H819.4V134.8ZM840.4 158.4C840.4 154.9 841 151.7 842.3 148.7 843.6 145.7 845.4 143.1 847.6 140.8 849.9 138.5 852.5 136.8 855.6 135.5 858.7 134.2 862 133.6 865.5 133.6 869 133.6 872.3 134.2 875.4 135.5 878.5 136.8 881.1 138.6 883.4 140.8 885.7 143.1 887.4 145.7 888.7 148.7 890 151.7 890.6 154.9 890.6 158.4 890.6 161.9 890 165.1 888.7 168.1 887.4 171.1 885.6 173.8 883.4 176 881.1 178.2 878.5 180 875.4 181.3 872.3 182.6 869 183.2 865.5 183.2 862 183.2 858.7 182.6 855.6 181.3 852.5 180 849.9 178.2 847.6 176 845.3 173.8 843.6 171.1 842.3 168.1 841.1 165.1 840.4 161.9 840.4 158.4ZM850 158.4C850 160.8 850.4 163 851.1 165 851.8 167 852.9 168.8 854.2 170.2 855.5 171.6 857.2 172.8 859.1 173.6 861 174.4 863.2 174.8 865.6 174.8 868 174.8 870.2 174.4 872.1 173.6 874 172.8 875.7 171.6 877 170.2 878.3 168.8 879.4 167 880.1 165 880.8 163 881.2 160.8 881.2 158.4 881.2 156 880.8 153.8 880.1 151.8 879.4 149.8 878.3 148 877 146.6 875.7 145.2 874 144 872.1 143.2 870.2 142.4 868 142 865.6 142 863.2 142 861 142.4 859.1 143.2 857.2 144 855.5 145.2 854.2 146.6 852.9 148 851.8 149.8 851.1 151.8 850.4 153.8 850 156 850 158.4Z" fill="#428cff"/>
</g>
<g clip-path="url(#clip_1)">
<g clip-path="url(#clip_2)">
<path transform="matrix(1.1152177,0,0,1.1152177,1310.8402,340.61775)" stroke-width="1" stroke-linecap="butt" stroke-miterlimit="10" stroke-linejoin="miter" fill="none" stroke="#9c9ca3" d="M169.78485 48H149.78485 105.892429C99.22576 48 95.892429 51.333333 95.892429 58V71.46045C95.892429 78.12711 92.55909 81.46045 85.892429 81.46045H42 22 42 85.892429C92.55909 81.46045 95.892429 78.12711 95.892429 71.46045V58C95.892429 51.333333 99.22576 48 105.892429 48H149.78485 169.78485ZM159.78485 44V52M22 77.46045 32 81.46045 22 85.46045"/>
<text fill-opacity="0" xml:space="preserve" transform="matrix(1.1152177 0 0 1.1152177 50 60.519506)" font-size="14" font-family="Open Sans"><tspan y="296.16017" x="1289.6455">1</tspan></text>
<text fill-opacity="0" xml:space="preserve" transform="matrix(1.1152177 0 0 1.1152177 50 60.519506)" font-size="14" font-family="Open Sans"><tspan y="329.6206" x="1155.5776">*</tspan></text>
</g>
<g clip-path="url(#clip_3)">
<path transform="matrix(1.1152177,0,0,1.1152177,703.53286,413.6204)" stroke-width="1" stroke-linecap="butt" stroke-miterlimit="10" stroke-linejoin="miter" fill="none" stroke="#9c9ca3" d="M22 48.075304H42 189.55568C189.58078 48.075304 189.59333 48.06275 189.59333 48.03765 189.59333 48.01255 189.60588 48 189.63098 48H337.18666 357.18666 337.18666 189.63098C189.60588 48 189.59333 48.01255 189.59333 48.03765 189.59333 48.06275 189.58078 48.075304 189.55568 48.075304H42 22ZM32 44.075304V52.075304M357.18666 44 347.18666 48 357.18666 52"/>
<text fill-opacity="0" xml:space="preserve" transform="matrix(1.1152177 0 0 1.1152177 50 60.519506)" font-size="14" font-family="Open Sans"><tspan y="361.6959" x="611.0137">1</tspan></text>
<text fill-opacity="0" xml:space="preserve" transform="matrix(1.1152177 0 0 1.1152177 50 60.519506)" font-size="14" font-family="Open Sans"><tspan y="361.6206" x="932.48336">*</tspan></text>
</g>
<g clip-path="url(#clip_4)">
<path transform="matrix(1.1152177,0,0,1.1152177,1310.8402,84.42087)" stroke-width="1" stroke-linecap="butt" stroke-miterlimit="10" stroke-linejoin="miter" fill="none" stroke="#9c9ca3" d="M22 215.18859H42 45.81672C48.3612 215.18859 49.63344 213.91634 49.63344 211.37186V51.81672C49.63344 49.27224 50.905679 48 53.450159 48H57.266878 77.26688 57.266878 53.450159C50.905679 48 49.63344 49.27224 49.63344 51.81672V211.37186C49.63344 213.91634 48.3612 215.18859 45.81672 215.18859H42 22ZM32 211.18859V219.18859M77.26688 44 67.26688 48 77.26688 52"/>
<text fill-opacity="0" xml:space="preserve" transform="matrix(1.1152177 0 0 1.1152177 50 60.519506)" font-size="14" font-family="Open Sans"><tspan y="233.6206" x="1155.5776">1</tspan></text>
<text fill-opacity="0" xml:space="preserve" transform="matrix(1.1152177 0 0 1.1152177 50 60.519506)" font-size="14" font-family="Open Sans"><tspan y="66.432018" x="1197.1276">*</tspan></text>
</g>
<g clip-path="url(#clip_5)">
<path transform="matrix(1.1152177,0,0,1.1152177,1542.6718,84.42087)" stroke-width="1" stroke-linecap="butt" stroke-miterlimit="10" stroke-linejoin="miter" fill="none" stroke="#9c9ca3" d="M107.66157 48H87.66157 74.83078C68.164119 48 64.83078 51.333333 64.83078 58V70C64.83078 76.666667 61.49745 80 54.830785 80H42 22 42 54.830785C61.49745 80 64.83078 76.666667 64.83078 70V58C64.83078 51.333333 68.164119 48 74.83078 48H87.66157 107.66157ZM97.66157 44V52M22 76 32 80 22 84"/>
<text fill-opacity="0" xml:space="preserve" transform="matrix(1.1152177 0 0 1.1152177 50 60.519506)" font-size="14" font-family="Open Sans"><tspan y="66.432018" x="1435.4024">1</tspan></text>
<text fill-opacity="0" xml:space="preserve" transform="matrix(1.1152177 0 0 1.1152177 50 60.519506)" font-size="14" font-family="Open Sans"><tspan y="98.432018" x="1363.4578">*</tspan></text>
</g>
<g clip-path="url(#clip_6)">
<path transform="matrix(1.1152177,0,0,1.1152177,1008.4463,96.20647)" stroke-width="1" stroke-linecap="butt" stroke-miterlimit="10" stroke-linejoin="miter" fill="none" stroke="#9c9ca3" d="M83.775 204.6206H63.775007 58.331254C54.702089 204.6206 52.8875 202.80602 52.8875 199.17685V53.443754C52.8875 49.814584 51.072919 48 47.443754 48H42 22 42 47.443754C51.072919 48 52.8875 49.814584 52.8875 53.443754V199.17685C52.8875 202.80602 54.702089 204.6206 58.331254 204.6206H63.775007 83.775ZM73.775 200.6206V208.6206M22 44 32 48 22 52"/>
<text fill-opacity="0" xml:space="preserve" transform="matrix(1.1152177 0 0 1.1152177 50 60.519506)" font-size="14" font-family="Open Sans"><tspan y="233.6206" x="932.48336">1</tspan></text>
<text fill-opacity="0" xml:space="preserve" transform="matrix(1.1152177 0 0 1.1152177 50 60.519506)" font-size="14" font-family="Open Sans"><tspan y="77" x="884.4253">*</tspan></text>
</g>
<g clip-path="url(#clip_7)">
<path transform="matrix(1.1152177,0,0,1.1152177,703.53286,131.89344)" stroke-width="1" stroke-linecap="butt" stroke-miterlimit="10" stroke-linejoin="miter" fill="none" stroke="#9c9ca3" d="M22 300.6959H42 48.00857C52.014284 300.6959 54.01714 298.69306 54.01714 294.68733V54.00857C54.01714 50.002859 56.019998 48 60.02571 48H66.03428 86.03428 66.03428 60.02571C56.019998 48 54.01714 50.002859 54.01714 54.00857V294.68733C54.01714 298.69306 52.014284 300.6959 48.00857 300.6959H42 22ZM32 296.6959V304.6959M86.03428 44 76.03428 48 86.03428 52"/>
<text fill-opacity="0" xml:space="preserve" transform="matrix(1.1152177 0 0 1.1152177 50 60.519506)" font-size="14" font-family="Open Sans"><tspan y="361.6959" x="611.0137">1</tspan></text>
<text fill-opacity="0" xml:space="preserve" transform="matrix(1.1152177 0 0 1.1152177 50 60.519506)" font-size="14" font-family="Open Sans"><tspan y="109" x="661.331">*</tspan></text>
</g>
<g clip-path="url(#clip_8)">
<path transform="matrix(1.1152177,0,0,1.1152177,703.53286,413.70436)" stroke-width="1" stroke-linecap="butt" stroke-miterlimit="10" stroke-linejoin="miter" fill="none" stroke="#9c9ca3" d="M22 48H42 169.72716C176.39383 48 179.72716 51.333333 179.72716 58V273.58299C179.72716 280.24967 183.06049 283.58299 189.72716 283.58299H317.4543 337.4543 317.4543 189.72716C183.06049 283.58299 179.72716 280.24967 179.72716 273.58299V58C179.72716 51.333333 176.39383 48 169.72716 48H42 22ZM32 44V52M337.4543 279.58299 327.4543 283.58299 337.4543 287.58299"/>
<text fill-opacity="0" xml:space="preserve" transform="matrix(1.1152177 0 0 1.1152177 50 60.519506)" font-size="14" font-family="Open Sans"><tspan y="361.6959" x="611.0137">1</tspan></text>
<text fill-opacity="0" xml:space="preserve" transform="matrix(1.1152177 0 0 1.1152177 50 60.519506)" font-size="14" font-family="Open Sans"><tspan y="597.2789" x="912.75106">*</tspan></text>
</g>
<g clip-path="url(#clip_9)">
<path transform="matrix(1.1152177,0,0,1.1152177,1278.6502,640.7437)" stroke-width="1" stroke-linecap="butt" stroke-miterlimit="10" stroke-linejoin="miter" fill="none" stroke="#9c9ca3" d="M22 48H42 87.89707C94.563739 48 97.89707 51.333333 97.89707 58V214.70352C97.89707 221.3702 101.2304 224.70352 107.89707 224.70352H153.79415 173.79415 153.79415 107.89707C101.2304 224.70352 97.89707 221.3702 97.89707 214.70352V58C97.89707 51.333333 94.563739 48 87.89707 48H42 22ZM32 44V52M173.79415 220.70352 163.79415 224.70352 173.79415 228.70352"/>
<text fill-opacity="0" xml:space="preserve" transform="matrix(1.1152177 0 0 1.1152177 50 60.519506)" font-size="14" font-family="Open Sans"><tspan y="565.2789" x="1126.7133">1</tspan></text>
<text fill-opacity="0" xml:space="preserve" transform="matrix(1.1152177 0 0 1.1152177 50 60.519506)" font-size="14" font-family="Open Sans"><tspan y="741.9824" x="1264.7904">*</tspan></text>
</g>
<g clip-path="url(#clip_10)">
<path transform="matrix(1.1152177,0,0,1.1152177,891.5769,640.7437)" stroke-width="1" stroke-linecap="butt" stroke-miterlimit="10" stroke-linejoin="miter" fill="none" stroke="#9c9ca3" d="M168.83783 48H148.83783 105.418918C98.75225 48 95.418918 51.333333 95.418918 58V217.60794C95.418918 224.27462 92.08559 227.60794 85.418918 227.60794H42 22 42 85.418918C92.08559 227.60794 95.418918 224.27462 95.418918 217.60794V58C95.418918 51.333333 98.75225 48 105.418918 48H148.83783 168.83783ZM158.83783 44V52M22 223.60794 32 227.60794 22 231.60794"/>
<text fill-opacity="0" xml:space="preserve" transform="matrix(1.1152177 0 0 1.1152177 50 60.519506)" font-size="14" font-family="Open Sans"><tspan y="565.2789" x="912.75106">1</tspan></text>
<text fill-opacity="0" xml:space="preserve" transform="matrix(1.1152177 0 0 1.1152177 50 60.519506)" font-size="14" font-family="Open Sans"><tspan y="744.88687" x="779.6302">*</tspan></text>
</g>
<g clip-path="url(#clip_11)">
<path transform="matrix(1.1152177,0,0,1.1152177,891.5769,712.1177)" stroke-width="1" stroke-linecap="butt" stroke-miterlimit="10" stroke-linejoin="miter" fill="none" stroke="#9c9ca3" d="M168.83783 48H148.83783 113.13585C106.469188 48 103.13585 51.333333 103.13585 58V185.60794C103.13585 192.27462 99.80252 195.60794 93.13585 195.60794H42 22 42 93.13585C99.80252 195.60794 103.13585 192.27462 103.13585 185.60794V58C103.13585 51.333333 106.469188 48 113.13585 48H148.83783 168.83783ZM158.83783 44V52M32 191.60794V199.60794"/>
<text fill-opacity="0" xml:space="preserve" transform="matrix(1.1152177 0 0 1.1152177 50 60.519506)" font-size="14" font-family="Open Sans"><tspan y="629.2789" x="912.4491">1</tspan></text>
<text fill-opacity="0" xml:space="preserve" transform="matrix(1.1152177 0 0 1.1152177 50 60.519506)" font-size="14" font-family="Open Sans"><tspan y="776.88687" x="779.6302">1</tspan></text>
</g>
<g clip-path="url(#clip_12)">
<path transform="matrix(1.1152177,0,0,1.1152177,249.37148,224.87923)" stroke-width="1" stroke-linecap="butt" stroke-miterlimit="10" stroke-linejoin="miter" fill="none" stroke="#9c9ca3" d="M104.01367 217.31685H84.01367 73.006839C66.34017 217.31685 63.006837 213.9835 63.006837 207.31685V58C63.006837 51.333333 59.673505 48 53.006837 48H42 22 42 53.006837C59.673505 48 63.006837 51.333333 63.006837 58V207.31685C63.006837 213.9835 66.34017 217.31685 73.006839 217.31685H84.01367 104.01367ZM94.01367 213.31685V221.31685M22 44 32 48 22 52"/>
<text fill-opacity="0" xml:space="preserve" transform="matrix(1.1152177 0 0 1.1152177 50 60.519506)" font-size="14" font-family="Open Sans"><tspan y="361.6959" x="272.07029">1</tspan></text>
<text fill-opacity="0" xml:space="preserve" transform="matrix(1.1152177 0 0 1.1152177 50 60.519506)" font-size="14" font-family="Open Sans"><tspan y="192.37906" x="203.77359">*</tspan></text>
</g>
<g clip-path="url(#clip_13)">
<path transform="matrix(1.1152177,0,0,1.1152177,365.36936,413.70436)" d="M0 0H325.2264V32H0Z" fill="#306996"/>
<text fill="#ffffff" xml:space="preserve" transform="matrix(1.1152177 0 0 1.1152177 50 60.519506)" font-size="13" font-family="Open Sans" font-weight="bold"><tspan y="335.9459" x="292.78727 301.32826 307.78926 315.45927 321.36128">users</tspan></text>
</g>
<g clip-path="url(#clip_14)">
<path transform="matrix(1.1152177,0,0,1.1152177,365.36936,449.39134)" d="M0 0H325.2264V32H0Z" fill="#f2f2f2"/>
<text fill="#6f6f6f" xml:space="preserve" transform="matrix(1.1152177 0 0 1.1152177 50 60.519506)" font-size="13" font-family="Open Sans" font-weight="bold"><tspan y="367.9459" x="292.78727 296.75227">id</tspan></text>
<path transform="matrix(1.1152177,0,0,1.1152177,394.61753,459.7071)" d="M6.5625 .9844C8.1935 .9844 9.5156 2.3065 9.5156 3.9375 9.5156 5.5685 8.1935 6.8906 6.5625 6.8906 6.1735 6.8906 5.8022 6.8153 5.462 6.6786L4.5938 7.5469H3.9375V8.5313H2.9531V9.5156H.9844V7.5469L3.736 4.7952C3.6518 4.5171 3.6092 4.2281 3.6094 3.9375 3.6094 2.3065 4.9315 .9844 6.5625 .9844ZM6.5625 0C4.388 0 2.625 1.7627 2.625 3.9375 2.625 4.1186 2.6373 4.2989 2.6619 4.4772L.1441 6.995C.0519 7.0873 0 7.2125 0 7.343V10.0078C0 10.2797 .2204 10.5 .4922 10.5H3.4453C3.7171 10.5 3.9375 10.2797 3.9375 10.0078V9.5156H4.4297C4.7015 9.5156 4.9219 9.2953 4.9219 9.0234V8.6133L5.7432 7.7895C6.011 7.8464 6.2848 7.875 6.5625 7.875 8.737 7.875 10.5 6.1123 10.5 3.9375 10.5 1.763 8.7373 0 6.5625 0ZM6.5625 2.9531C6.5625 3.4968 7.0032 3.9375 7.5469 3.9375 8.0905 3.9375 8.5313 3.4968 8.5313 2.9531 8.5313 2.4095 8.0905 1.9688 7.5469 1.9688 7.0032 1.9688 6.5625 2.4095 6.5625 2.9531Z" fill="#707070"/>
<text fill="#999999" xml:space="preserve" transform="matrix(1.1152177 0 0 1.1152177 50 60.519506)" font-size="13" font-family="Open Sans" font-weight="bold"><tspan y="367.9459" x="579.825 583.79006 592.33108">int</tspan></text>
</g>
<g clip-path="url(#clip_15)">
<path transform="matrix(1.1152177,0,0,1.1152177,365.36936,485.07829)" d="M0 0H325.2264V32H0Z" fill="#f2f2f2"/>
<text fill="#6f6f6f" xml:space="preserve" transform="matrix(1.1152177 0 0 1.1152177 50 60.519506)" font-size="13" font-family="Open Sans"><tspan y="399.9459" x="292.78727 300.08027 312.10527 319.32026 322.59626">email</tspan></text>
<path transform="matrix(1.1152177,0,0,1.1152177,690.1502,492.3272)" d="M2 0H22C22 0 24 0 24 2V14C24 14 24 16 22 16H2C2 16 0 16 0 14V2C0 2 0 0 2 0" fill="#dedede"/>
<path transform="matrix(1.1152177,0,0,1.1152177,690.1502,492.3272)" d="M10.8112 12.5H9.6432L4.89385 4.94049H4.84618C4.8581 5.14159 4.872 5.37141 4.8879 5.62996 4.90379 5.8844 4.9157 6.15732 4.92365 6.4487 4.93557 6.73598 4.94153 7.02941 4.94153 7.329V12.5H4V3.5H5.16201L9.89348 11.0349H9.9352C9.92725 10.8912 9.91732 10.6881 9.9054 10.4254 9.89348 10.1587 9.88156 9.87346 9.86965 9.56977 9.8617 9.26197 9.85773 8.97674 9.85773 8.71409V3.5H10.8112V12.5Z" fill="#707070"/>
<path transform="matrix(1.1152177,0,0,1.1152177,690.1502,492.3272)" d="M20 12.5H18.832L14.0827 4.94049H14.035C14.0469 5.14159 14.0608 5.37141 14.0767 5.62996 14.0926 5.8844 14.1045 6.15732 14.1125 6.4487 14.1244 6.73598 14.1304 7.02941 14.1304 7.329V12.5H13.1888V3.5H14.3508L19.0823 11.0349H19.124C19.1161 10.8912 19.1061 10.6881 19.0942 10.4254 19.0823 10.1587 19.0704 9.87346 19.0585 9.56977 19.050499 9.26197 19.0466 8.97674 19.0466 8.71409V3.5H20V12.5Z" fill="#707070"/>
<text fill="#999999" xml:space="preserve" transform="matrix(1.1152177 0 0 1.1152177 50 60.519506)" font-size="13" font-family="Open Sans"><tspan y="399.9459" x="494.1646 500.6516 507.8666 513.1706 519.3976 527.3666 534.5816 539.8856 543.70767 551.1306 558.5536 565.97659">varchar(100)</tspan></text>
</g>
<g clip-path="url(#clip_16)">
<path transform="matrix(1.1152177,0,0,1.1152177,365.36936,520.76528)" d="M0 0H325.2264V32H0Z" fill="#f2f2f2"/>
<text fill="#6f6f6f" xml:space="preserve" transform="matrix(1.1152177 0 0 1.1152177 50 60.519506)" font-size="13" font-family="Open Sans"><tspan y="431.9459" x="292.78727 296.06327 304.03227 310.22026 314.84825 318.12425 322.75224 330.72123 335.3492 338.6252 346.4382">institution</tspan></text>
<text fill="#999999" xml:space="preserve" transform="matrix(1.1152177 0 0 1.1152177 50 60.519506)" font-size="13" font-family="Open Sans"><tspan y="431.9459" x="529.61746 536.10446 543.31948 548.6235 554.85049 562.81948 570.0345 575.3385 579.1605 586.5835 594.0065">varchar(50)</tspan></text>
</g>
<g clip-path="url(#clip_17)">
<path transform="matrix(1.1152177,0,0,1.1152177,365.36936,556.4522)" d="M0 0H325.2264V32H0Z" fill="#f2f2f2"/>
<text fill="#6f6f6f" xml:space="preserve" transform="matrix(1.1152177 0 0 1.1152177 50 60.519506)" font-size="13" font-family="Open Sans"><tspan y="463.9459" x="292.78727 298.09126 305.90425 309.18025">role</tspan></text>
<path transform="matrix(1.1152177,0,0,1.1152177,690.1502,563.7012)" d="M2 0H22C22 0 24 0 24 2V14C24 14 24 16 22 16H2C2 16 0 16 0 14V2C0 2 0 0 2 0" fill="#dedede"/>
<path transform="matrix(1.1152177,0,0,1.1152177,690.1502,563.7012)" d="M10.8112 12.5H9.6432L4.89385 4.94049H4.84618C4.8581 5.14159 4.872 5.37141 4.8879 5.62996 4.90379 5.8844 4.9157 6.15732 4.92365 6.4487 4.93557 6.73598 4.94153 7.02941 4.94153 7.329V12.5H4V3.5H5.16201L9.89348 11.0349H9.9352C9.92725 10.8912 9.91732 10.6881 9.9054 10.4254 9.89348 10.1587 9.88156 9.87346 9.86965 9.56977 9.8617 9.26197 9.85773 8.97674 9.85773 8.71409V3.5H10.8112V12.5Z" fill="#707070"/>
<path transform="matrix(1.1152177,0,0,1.1152177,690.1502,563.7012)" d="M20 12.5H18.832L14.0827 4.94049H14.035C14.0469 5.14159 14.0608 5.37141 14.0767 5.62996 14.0926 5.8844 14.1045 6.15732 14.1125 6.4487 14.1244 6.73598 14.1304 7.02941 14.1304 7.329V12.5H13.1888V3.5H14.3508L19.0823 11.0349H19.124C19.1161 10.8912 19.1061 10.6881 19.0942 10.4254 19.0823 10.1587 19.0704 9.87346 19.0585 9.56977 19.050499 9.26197 19.0466 8.97674 19.0466 8.71409V3.5H20V12.5Z" fill="#707070"/>
<text fill="#999999" xml:space="preserve" transform="matrix(1.1152177 0 0 1.1152177 50 60.519506)" font-size="13" font-family="Open Sans"><tspan y="463.9459" x="382.9948 390.2098 399.9858 409.4628 421.1498 424.9718 432.1868 440.1298 452.1548 455.4308 463.39979 466.75379 472.98078 480.79377 488.76277 493.39076 498.69474 501.97074 509.91374 517.88278 522.51077 530.3237 535.62777 538.98178 546.95077 553.13876 560.43179 565.7358">ENUM(admin,contributor,user)</tspan></text>
</g>
<g clip-path="url(#clip_18)">
<path transform="matrix(1.1152177,0,0,1.1152177,365.36936,592.1392)" d="M0 0H325.2264V32H0Z" fill="#f2f2f2"/>
<text fill="#6f6f6f" xml:space="preserve" transform="matrix(1.1152177 0 0 1.1152177 50 60.519506)" font-size="13" font-family="Open Sans"><tspan y="495.9459" x="292.78727 300.75627 306.94425 314.23725 319.54124 327.51023 334.72523 346.7502">username</tspan></text>
<text fill="#999999" xml:space="preserve" transform="matrix(1.1152177 0 0 1.1152177 50 60.519506)" font-size="13" font-family="Open Sans"><tspan y="495.9459" x="529.61746 536.10446 543.31948 548.6235 554.85049 562.81948 570.0345 575.3385 579.1605 586.5835 594.0065">varchar(20)</tspan></text>
</g>
<g clip-path="url(#clip_19)">
<path transform="matrix(1.1152177,0,0,1.1152177,365.36936,627.8262)" d="M0 0H325.2264V32H0Z" fill="#f2f2f2"/>
<text fill="#6f6f6f" xml:space="preserve" transform="matrix(1.1152177 0 0 1.1152177 50 60.519506)" font-size="13" font-family="Open Sans"><tspan y="527.9459" x="292.78727 300.73027 307.94526 314.13325 320.32124 330.38325 338.19624 343.5002 351.4432 357.1242 365.0932 372.3082 378.4962">password_hash</tspan></text>
<path transform="matrix(1.1152177,0,0,1.1152177,690.1502,635.07516)" d="M2 0H22C22 0 24 0 24 2V14C24 14 24 16 22 16H2C2 16 0 16 0 14V2C0 2 0 0 2 0" fill="#dedede"/>
<path transform="matrix(1.1152177,0,0,1.1152177,690.1502,635.07516)" d="M10.8112 12.5H9.6432L4.89385 4.94049H4.84618C4.8581 5.14159 4.872 5.37141 4.8879 5.62996 4.90379 5.8844 4.9157 6.15732 4.92365 6.4487 4.93557 6.73598 4.94153 7.02941 4.94153 7.329V12.5H4V3.5H5.16201L9.89348 11.0349H9.9352C9.92725 10.8912 9.91732 10.6881 9.9054 10.4254 9.89348 10.1587 9.88156 9.87346 9.86965 9.56977 9.8617 9.26197 9.85773 8.97674 9.85773 8.71409V3.5H10.8112V12.5Z" fill="#707070"/>
<path transform="matrix(1.1152177,0,0,1.1152177,690.1502,635.07516)" d="M20 12.5H18.832L14.0827 4.94049H14.035C14.0469 5.14159 14.0608 5.37141 14.0767 5.62996 14.0926 5.8844 14.1045 6.15732 14.1125 6.4487 14.1244 6.73598 14.1304 7.02941 14.1304 7.329V12.5H13.1888V3.5H14.3508L19.0823 11.0349H19.124C19.1161 10.8912 19.1061 10.6881 19.0942 10.4254 19.0823 10.1587 19.0704 9.87346 19.0585 9.56977 19.050499 9.26197 19.0466 8.97674 19.0466 8.71409V3.5H20V12.5Z" fill="#707070"/>
<text fill="#999999" xml:space="preserve" transform="matrix(1.1152177 0 0 1.1152177 50 60.519506)" font-size="13" font-family="Open Sans"><tspan y="527.9459" x="494.1646 500.6516 507.8666 513.1706 519.3976 527.3666 534.5816 539.8856 543.70767 551.1306 558.5536 565.97659">varchar(250)</tspan></text>
</g>
<g clip-path="url(#clip_20)">
<path transform="matrix(1.1152177,0,0,1.1152177,365.36936,663.5132)" d="M0 0H325.2264V32H0Z" fill="#f2f2f2"/>
<text fill="#6f6f6f" xml:space="preserve" transform="matrix(1.1152177 0 0 1.1152177 50 60.519506)" font-size="13" font-family="Open Sans"><tspan y="559.9459" x="292.78727 299.01426 304.31825 311.61125 318.82624 323.45423 330.74723 338.69023 344.37123 351.5862">created_at</tspan></text>
<text fill="#999999" xml:space="preserve" transform="matrix(1.1152177 0 0 1.1152177 50 60.519506)" font-size="13" font-family="Open Sans"><tspan y="559.9459" x="532.6363 537.2643 540.5403 552.5653 559.85836 566.0463 570.6743 577.88937 589.91439">timestamp</tspan></text>
</g>
<g clip-path="url(#clip_21)">
<path transform="matrix(1.1152177,0,0,1.1152177,1500.1873,340.61775)" d="M0 0H208.84906V32H0Z" fill="#306996"/>
<text fill="#ffffff" xml:space="preserve" transform="matrix(1.1152177 0 0 1.1152177 50 60.519506)" font-size="13" font-family="Open Sans" font-weight="bold"><tspan y="270.41017" x="1310.3626 1317.0446 1324.8966 1330.5386 1338.2086 1345.5407 1353.5877 1359.4896 1363.4546 1371.1246">categories</tspan></text>
</g>
<g clip-path="url(#clip_22)">
<path transform="matrix(1.1152177,0,0,1.1152177,1500.1873,376.30473)" d="M0 0H208.84906V32H0Z" fill="#f2f2f2"/>
<text fill="#6f6f6f" xml:space="preserve" transform="matrix(1.1152177 0 0 1.1152177 50 60.519506)" font-size="13" font-family="Open Sans" font-weight="bold"><tspan y="302.41017" x="1310.3626 1314.3275">id</tspan></text>
<path transform="matrix(1.1152177,0,0,1.1152177,1529.4356,386.62049)" d="M6.5625 .9844C8.1935 .9844 9.5156 2.3065 9.5156 3.9375 9.5156 5.5685 8.1935 6.8906 6.5625 6.8906 6.1735 6.8906 5.8022 6.8153 5.462 6.6786L4.5938 7.5469H3.9375V8.5313H2.9531V9.5156H.9844V7.5469L3.736 4.7952C3.6518 4.5171 3.6092 4.2281 3.6094 3.9375 3.6094 2.3065 4.9315 .9844 6.5625 .9844ZM6.5625 0C4.388 0 2.625 1.7627 2.625 3.9375 2.625 4.1186 2.6373 4.2989 2.6619 4.4772L.1441 6.995C.0519 7.0873 0 7.2125 0 7.343V10.0078C0 10.2797 .2204 10.5 .4922 10.5H3.4453C3.7171 10.5 3.9375 10.2797 3.9375 10.0078V9.5156H4.4297C4.7015 9.5156 4.9219 9.2953 4.9219 9.0234V8.6133L5.7432 7.7895C6.011 7.8464 6.2848 7.875 6.5625 7.875 8.737 7.875 10.5 6.1123 10.5 3.9375 10.5 1.763 8.7373 0 6.5625 0ZM6.5625 2.9531C6.5625 3.4968 7.0032 3.9375 7.5469 3.9375 8.0905 3.9375 8.5313 3.4968 8.5313 2.9531 8.5313 2.4095 8.0905 1.9688 7.5469 1.9688 7.0032 1.9688 6.5625 2.4095 6.5625 2.9531Z" fill="#707070"/>
<text fill="#999999" xml:space="preserve" transform="matrix(1.1152177 0 0 1.1152177 50 60.519506)" font-size="13" font-family="Open Sans" font-weight="bold"><tspan y="302.41017" x="1481.023 1484.9879 1493.5289">int</tspan></text>
</g>
<g clip-path="url(#clip_23)">
<path transform="matrix(1.1152177,0,0,1.1152177,1500.1873,411.99168)" d="M0 0H208.84906V32H0Z" fill="#f2f2f2"/>
<text fill="#6f6f6f" xml:space="preserve" transform="matrix(1.1152177 0 0 1.1152177 50 60.519506)" font-size="13" font-family="Open Sans"><tspan y="334.41017" x="1310.3626 1318.3316 1325.5465 1337.5715">name</tspan></text>
<path transform="matrix(1.1152177,0,0,1.1152177,1695.182,419.2406)" d="M2 0H22C22 0 24 0 24 2V14C24 14 24 16 22 16H2C2 16 0 16 0 14V2C0 2 0 0 2 0" fill="#dedede"/>
<path transform="matrix(1.1152177,0,0,1.1152177,1695.182,419.2406)" d="M10.8112 12.5H9.6432L4.89385 4.94049H4.84618C4.8581 5.14159 4.872 5.37141 4.8879 5.62996 4.90379 5.8844 4.9157 6.15732 4.92365 6.4487 4.93557 6.73598 4.94153 7.02941 4.94153 7.329V12.5H4V3.5H5.16201L9.89348 11.0349H9.9352C9.92725 10.8912 9.91732 10.6881 9.9054 10.4254 9.89348 10.1587 9.88156 9.87346 9.86965 9.56977 9.8617 9.26197 9.85773 8.97674 9.85773 8.71409V3.5H10.8112V12.5Z" fill="#707070"/>
<path transform="matrix(1.1152177,0,0,1.1152177,1695.182,419.2406)" d="M20 12.5H18.832L14.0827 4.94049H14.035C14.0469 5.14159 14.0608 5.37141 14.0767 5.62996 14.0926 5.8844 14.1045 6.15732 14.1125 6.4487 14.1244 6.73598 14.1304 7.02941 14.1304 7.329V12.5H13.1888V3.5H14.3508L19.0823 11.0349H19.124C19.1161 10.8912 19.1061 10.6881 19.0942 10.4254 19.0823 10.1587 19.0704 9.87346 19.0585 9.56977 19.050499 9.26197 19.0466 8.97674 19.0466 8.71409V3.5H20V12.5Z" fill="#707070"/>
<text fill="#999999" xml:space="preserve" transform="matrix(1.1152177 0 0 1.1152177 50 60.519506)" font-size="13" font-family="Open Sans"><tspan y="334.41017" x="1402.8154 1409.3025 1416.5175 1421.8214 1428.0485 1436.0175 1443.2324 1448.5364 1452.3584 1459.7814 1467.2044">varchar(50)</tspan></text>
</g>
<g clip-path="url(#clip_24)">
<path transform="matrix(1.1152177,0,0,1.1152177,1500.1873,447.67866)" d="M0 0H208.84906V32H0Z" fill="#f2f2f2"/>
<text fill="#6f6f6f" xml:space="preserve" transform="matrix(1.1152177 0 0 1.1152177 50 60.519506)" font-size="13" font-family="Open Sans"><tspan y="366.41017" x="1310.3626 1318.3056 1325.5985 1331.7865 1338.0136 1343.3175 1346.5935 1354.5365 1359.1646 1362.4406 1370.2536">description</tspan></text>
<text fill="#999999" xml:space="preserve" transform="matrix(1.1152177 0 0 1.1152177 50 60.519506)" font-size="13" font-family="Open Sans"><tspan y="366.41017" x="1475.8154 1480.4435 1487.7365 1494.5354">text</tspan></text>
</g>
<g clip-path="url(#clip_25)">
<path transform="matrix(1.1152177,0,0,1.1152177,1101.8737,270.87257)" d="M0 0H209.37737V32H0Z" fill="#306996"/>
<text fill="#ffffff" xml:space="preserve" transform="matrix(1.1152177 0 0 1.1152177 50 60.519506)" font-size="13" font-family="Open Sans" font-weight="bold"><tspan y="207.8706" x="953.2003 960.5843 964.5493 972.7653 980.4353">video</tspan></text>
</g>
<g clip-path="url(#clip_26)">
<path transform="matrix(1.1152177,0,0,1.1152177,1101.8737,306.5595)" d="M0 0H209.37737V32H0Z" fill="#f2f2f2"/>
<text fill="#6f6f6f" xml:space="preserve" transform="matrix(1.1152177 0 0 1.1152177 50 60.519506)" font-size="13" font-family="Open Sans" font-weight="bold"><tspan y="239.8706" x="953.2003 957.16537">id</tspan></text>
<path transform="matrix(1.1152177,0,0,1.1152177,1131.1218,316.87528)" d="M6.5625 .9844C8.1935 .9844 9.5156 2.3065 9.5156 3.9375 9.5156 5.5685 8.1935 6.8906 6.5625 6.8906 6.1735 6.8906 5.8022 6.8153 5.462 6.6786L4.5938 7.5469H3.9375V8.5313H2.9531V9.5156H.9844V7.5469L3.736 4.7952C3.6518 4.5171 3.6092 4.2281 3.6094 3.9375 3.6094 2.3065 4.9315 .9844 6.5625 .9844ZM6.5625 0C4.388 0 2.625 1.7627 2.625 3.9375 2.625 4.1186 2.6373 4.2989 2.6619 4.4772L.1441 6.995C.0519 7.0873 0 7.2125 0 7.343V10.0078C0 10.2797 .2204 10.5 .4922 10.5H3.4453C3.7171 10.5 3.9375 10.2797 3.9375 10.0078V9.5156H4.4297C4.7015 9.5156 4.9219 9.2953 4.9219 9.0234V8.6133L5.7432 7.7895C6.011 7.8464 6.2848 7.875 6.5625 7.875 8.737 7.875 10.5 6.1123 10.5 3.9375 10.5 1.763 8.7373 0 6.5625 0ZM6.5625 2.9531C6.5625 3.4968 7.0032 3.9375 7.5469 3.9375 8.0905 3.9375 8.5313 3.4968 8.5313 2.9531 8.5313 2.4095 8.0905 1.9688 7.5469 1.9688 7.0032 1.9688 6.5625 2.4095 6.5625 2.9531Z" fill="#707070"/>
<text fill="#999999" xml:space="preserve" transform="matrix(1.1152177 0 0 1.1152177 50 60.519506)" font-size="13" font-family="Open Sans" font-weight="bold"><tspan y="239.8706" x="1124.389 1128.354 1136.895">int</tspan></text>
</g>
<g clip-path="url(#clip_27)">
<path transform="matrix(1.1152177,0,0,1.1152177,1101.8737,342.24647)" d="M0 0H209.37737V32H0Z" fill="#f2f2f2"/>
<text fill="#6f6f6f" xml:space="preserve" transform="matrix(1.1152177 0 0 1.1152177 50 60.519506)" font-size="13" font-family="Open Sans"><tspan y="271.8706" x="953.2003 957.8283 961.1043 965.7323 969.0083">title</tspan></text>
<path transform="matrix(1.1152177,0,0,1.1152177,1297.4575,349.4954)" d="M2 0H22C22 0 24 0 24 2V14C24 14 24 16 22 16H2C2 16 0 16 0 14V2C0 2 0 0 2 0" fill="#dedede"/>
<path transform="matrix(1.1152177,0,0,1.1152177,1297.4575,349.4954)" d="M10.8112 12.5H9.6432L4.89385 4.94049H4.84618C4.8581 5.14159 4.872 5.37141 4.8879 5.62996 4.90379 5.8844 4.9157 6.15732 4.92365 6.4487 4.93557 6.73598 4.94153 7.02941 4.94153 7.329V12.5H4V3.5H5.16201L9.89348 11.0349H9.9352C9.92725 10.8912 9.91732 10.6881 9.9054 10.4254 9.89348 10.1587 9.88156 9.87346 9.86965 9.56977 9.8617 9.26197 9.85773 8.97674 9.85773 8.71409V3.5H10.8112V12.5Z" fill="#707070"/>
<path transform="matrix(1.1152177,0,0,1.1152177,1297.4575,349.4954)" d="M20 12.5H18.832L14.0827 4.94049H14.035C14.0469 5.14159 14.0608 5.37141 14.0767 5.62996 14.0926 5.8844 14.1045 6.15732 14.1125 6.4487 14.1244 6.73598 14.1304 7.02941 14.1304 7.329V12.5H13.1888V3.5H14.3508L19.0823 11.0349H19.124C19.1161 10.8912 19.1061 10.6881 19.0942 10.4254 19.0823 10.1587 19.0704 9.87346 19.0585 9.56977 19.050499 9.26197 19.0466 8.97674 19.0466 8.71409V3.5H20V12.5Z" fill="#707070"/>
<text fill="#999999" xml:space="preserve" transform="matrix(1.1152177 0 0 1.1152177 50 60.519506)" font-size="13" font-family="Open Sans"><tspan y="271.8706" x="1038.7286 1045.2157 1052.4307 1057.7346 1063.9617 1071.9307 1079.1456 1084.4496 1088.2716 1095.6946 1103.1176 1110.5405">varchar(200)</tspan></text>
</g>
<g clip-path="url(#clip_28)">
<path transform="matrix(1.1152177,0,0,1.1152177,1101.8737,377.93345)" d="M0 0H209.37737V32H0Z" fill="#f2f2f2"/>
<text fill="#6f6f6f" xml:space="preserve" transform="matrix(1.1152177 0 0 1.1152177 50 60.519506)" font-size="13" font-family="Open Sans"><tspan y="303.8706" x="953.2003 961.1433 968.43637 974.6243 980.8513 986.15536 989.43136 997.3743 1002.0023 1005.2783 1013.0913">description</tspan></text>
<text fill="#999999" xml:space="preserve" transform="matrix(1.1152177 0 0 1.1152177 50 60.519506)" font-size="13" font-family="Open Sans"><tspan y="303.8706" x="1119.1815 1123.8096 1131.1026 1137.9015">text</tspan></text>
</g>
<g clip-path="url(#clip_29)">
<path transform="matrix(1.1152177,0,0,1.1152177,1101.8737,413.6204)" d="M0 0H209.37737V32H0Z" fill="#f2f2f2"/>
<text fill="#6f6f6f" xml:space="preserve" transform="matrix(1.1152177 0 0 1.1152177 50 60.519506)" font-size="13" font-family="Open Sans"><tspan y="335.8706" x="953.2003 959.4273 966.64236 971.2703 978.56338 985.6094 993.42239 998.7264">category</tspan></text>
<text fill="#999999" xml:space="preserve" transform="matrix(1.1152177 0 0 1.1152177 50 60.519506)" font-size="13" font-family="Open Sans"><tspan y="335.8706" x="1126.672 1129.948 1137.917">int</tspan></text>
</g>
<g clip-path="url(#clip_30)">
<path transform="matrix(1.1152177,0,0,1.1152177,1101.8737,449.30738)" d="M0 0H209.37737V32H0Z" fill="#f2f2f2"/>
<text fill="#6f6f6f" xml:space="preserve" transform="matrix(1.1152177 0 0 1.1152177 50 60.519506)" font-size="13" font-family="Open Sans"><tspan y="367.8706" x="953.2003 961.1693 969.1123 972.3883 980.2013 987.4163 995.3593 1002.65237 1007.95639 1013.6374 1016.9134">uploader_id</tspan></text>
<text fill="#999999" xml:space="preserve" transform="matrix(1.1152177 0 0 1.1152177 50 60.519506)" font-size="13" font-family="Open Sans"><tspan y="367.8706" x="1126.672 1129.948 1137.917">int</tspan></text>
</g>
<g clip-path="url(#clip_31)">
<path transform="matrix(1.1152177,0,0,1.1152177,1101.8737,484.99433)" d="M0 0H209.37737V32H0Z" fill="#f2f2f2"/>
<text fill="#6f6f6f" xml:space="preserve" transform="matrix(1.1152177 0 0 1.1152177 50 60.519506)" font-size="13" font-family="Open Sans"><tspan y="399.8706" x="953.2003 961.1693 969.1123 972.3883 980.2013 987.4163 995.3593 1001.04037 1008.98336 1016.19839 1020.82638">upload_date</tspan></text>
<text fill="#999999" xml:space="preserve" transform="matrix(1.1152177 0 0 1.1152177 50 60.519506)" font-size="13" font-family="Open Sans"><tspan y="399.8706" x="1088.1626 1096.1056 1103.3206 1107.9486 1115.2416 1119.8696 1123.1456 1135.1707">datetime</tspan></text>
</g>
<g clip-path="url(#clip_32)">
<path transform="matrix(1.1152177,0,0,1.1152177,1662.7379,84.42087)" d="M0 0H180.84906V32H0Z" fill="#306996"/>
<text fill="#ffffff" xml:space="preserve" transform="matrix(1.1152177 0 0 1.1152177 50 60.519506)" font-size="13" font-family="Open Sans" font-weight="bold"><tspan y="40.68202" x="1456.1194 1461.7614 1469.6134 1476.9454">tags</tspan></text>
</g>
<g clip-path="url(#clip_33)">
<path transform="matrix(1.1152177,0,0,1.1152177,1662.7379,120.107837)" d="M0 0H180.84906V32H0Z" fill="#f2f2f2"/>
<text fill="#6f6f6f" xml:space="preserve" transform="matrix(1.1152177 0 0 1.1152177 50 60.519506)" font-size="13" font-family="Open Sans" font-weight="bold"><tspan y="72.682018" x="1456.1194 1460.0844">id</tspan></text>
<path transform="matrix(1.1152177,0,0,1.1152177,1691.986,130.4236)" d="M6.5625 .9844C8.1935 .9844 9.5156 2.3065 9.5156 3.9375 9.5156 5.5685 8.1935 6.8906 6.5625 6.8906 6.1735 6.8906 5.8022 6.8153 5.462 6.6786L4.5938 7.5469H3.9375V8.5313H2.9531V9.5156H.9844V7.5469L3.736 4.7952C3.6518 4.5171 3.6092 4.2281 3.6094 3.9375 3.6094 2.3065 4.9315 .9844 6.5625 .9844ZM6.5625 0C4.388 0 2.625 1.7627 2.625 3.9375 2.625 4.1186 2.6373 4.2989 2.6619 4.4772L.1441 6.995C.0519 7.0873 0 7.2125 0 7.343V10.0078C0 10.2797 .2204 10.5 .4922 10.5H3.4453C3.7171 10.5 3.9375 10.2797 3.9375 10.0078V9.5156H4.4297C4.7015 9.5156 4.9219 9.2953 4.9219 9.0234V8.6133L5.7432 7.7895C6.011 7.8464 6.2848 7.875 6.5625 7.875 8.737 7.875 10.5 6.1123 10.5 3.9375 10.5 1.763 8.7373 0 6.5625 0ZM6.5625 2.9531C6.5625 3.4968 7.0032 3.9375 7.5469 3.9375 8.0905 3.9375 8.5313 3.4968 8.5313 2.9531 8.5313 2.4095 8.0905 1.9688 7.5469 1.9688 7.0032 1.9688 6.5625 2.4095 6.5625 2.9531Z" fill="#707070"/>
<text fill="#999999" xml:space="preserve" transform="matrix(1.1152177 0 0 1.1152177 50 60.519506)" font-size="13" font-family="Open Sans" font-weight="bold"><tspan y="72.682018" x="1598.7797 1602.7446 1611.2857">int</tspan></text>
</g>
<g clip-path="url(#clip_34)">
<path transform="matrix(1.1152177,0,0,1.1152177,1662.7379,155.7948)" d="M0 0H180.84906V32H0Z" fill="#f2f2f2"/>
<text fill="#6f6f6f" xml:space="preserve" transform="matrix(1.1152177 0 0 1.1152177 50 60.519506)" font-size="13" font-family="Open Sans"><tspan y="104.682018" x="1456.1194 1464.0884 1471.3034 1483.3284">name</tspan></text>
<text fill="#999999" xml:space="preserve" transform="matrix(1.1152177 0 0 1.1152177 50 60.519506)" font-size="13" font-family="Open Sans"><tspan y="104.682018" x="1548.5722 1555.0592 1562.2742 1567.5781 1573.8052 1581.7742 1588.9891 1594.2931 1598.1151 1605.5381 1612.961">varchar(50)</tspan></text>
</g>
<g clip-path="url(#clip_35)">
<path transform="matrix(1.1152177,0,0,1.1152177,1397.0097,84.42087)" d="M0 0H152.6132V32H0Z" fill="#306996"/>
<text fill="#ffffff" xml:space="preserve" transform="matrix(1.1152177 0 0 1.1152177 50 60.519506)" font-size="13" font-family="Open Sans" font-weight="bold"><tspan y="40.68202" x="1217.8446 1225.2286 1229.1936 1237.4096 1245.0796 1253.1266 1258.4696 1264.1116 1271.9636 1279.2957">video_tags</tspan></text>
</g>
<g clip-path="url(#clip_36)">
<path transform="matrix(1.1152177,0,0,1.1152177,1397.0097,120.107837)" d="M0 0H152.6132V32H0Z" fill="#f2f2f2"/>
<text fill="#6f6f6f" xml:space="preserve" transform="matrix(1.1152177 0 0 1.1152177 50 60.519506)" font-size="13" font-family="Open Sans"><tspan y="72.682018" x="1217.8446 1224.3317 1227.6077 1235.5507 1242.8436 1250.6566 1256.3377 1259.6137">video_id</tspan></text>
<text fill="#999999" xml:space="preserve" transform="matrix(1.1152177 0 0 1.1152177 50 60.519506)" font-size="13" font-family="Open Sans"><tspan y="72.682018" x="1334.5521 1337.8281 1345.7971">int</tspan></text>
</g>
<g clip-path="url(#clip_37)">
<path transform="matrix(1.1152177,0,0,1.1152177,1397.0097,155.7948)" d="M0 0H152.6132V32H0Z" fill="#f2f2f2"/>
<text fill="#6f6f6f" xml:space="preserve" transform="matrix(1.1152177 0 0 1.1152177 50 60.519506)" font-size="13" font-family="Open Sans"><tspan y="104.682018" x="1217.8446 1222.4727 1229.6876 1236.7337 1242.4147 1245.6907">tag_id</tspan></text>
<text fill="#999999" xml:space="preserve" transform="matrix(1.1152177 0 0 1.1152177 50 60.519506)" font-size="13" font-family="Open Sans"><tspan y="104.682018" x="1334.5521 1337.8281 1345.7971">int</tspan></text>
</g>
<g clip-path="url(#clip_38)">
<path transform="matrix(1.1152177,0,0,1.1152177,799.4798,60.519506)" d="M0 0H209.37737V32H0Z" fill="#306996"/>
<text fill="#ffffff" xml:space="preserve" transform="matrix(1.1152177 0 0 1.1152177 50 60.519506)" font-size="13" font-family="Open Sans" font-weight="bold"><tspan y="19.25" x="682.048 690.589 698.805 702.77 710.817 718.669 726.885">uploads</tspan></text>
</g>
<g clip-path="url(#clip_39)">
<path transform="matrix(1.1152177,0,0,1.1152177,799.4798,96.20647)" d="M0 0H209.37737V32H0Z" fill="#f2f2f2"/>
<text fill="#6f6f6f" xml:space="preserve" transform="matrix(1.1152177 0 0 1.1152177 50 60.519506)" font-size="13" font-family="Open Sans" font-weight="bold"><tspan y="51.25" x="682.048 686.013">id</tspan></text>
<path transform="matrix(1.1152177,0,0,1.1152177,828.7279,106.52223)" d="M6.5625 .9844C8.1935 .9844 9.5156 2.3065 9.5156 3.9375 9.5156 5.5685 8.1935 6.8906 6.5625 6.8906 6.1735 6.8906 5.8022 6.8153 5.462 6.6786L4.5938 7.5469H3.9375V8.5313H2.9531V9.5156H.9844V7.5469L3.736 4.7952C3.6518 4.5171 3.6092 4.2281 3.6094 3.9375 3.6094 2.3065 4.9315 .9844 6.5625 .9844ZM6.5625 0C4.388 0 2.625 1.7627 2.625 3.9375 2.625 4.1186 2.6373 4.2989 2.6619 4.4772L.1441 6.995C.0519 7.0873 0 7.2125 0 7.343V10.0078C0 10.2797 .2204 10.5 .4922 10.5H3.4453C3.7171 10.5 3.9375 10.2797 3.9375 10.0078V9.5156H4.4297C4.7015 9.5156 4.9219 9.2953 4.9219 9.0234V8.6133L5.7432 7.7895C6.011 7.8464 6.2848 7.875 6.5625 7.875 8.737 7.875 10.5 6.1123 10.5 3.9375 10.5 1.763 8.7373 0 6.5625 0ZM6.5625 2.9531C6.5625 3.4968 7.0032 3.9375 7.5469 3.9375 8.0905 3.9375 8.5313 3.4968 8.5313 2.9531 8.5313 2.4095 8.0905 1.9688 7.5469 1.9688 7.0032 1.9688 6.5625 2.4095 6.5625 2.9531Z" fill="#707070"/>
<text fill="#999999" xml:space="preserve" transform="matrix(1.1152177 0 0 1.1152177 50 60.519506)" font-size="13" font-family="Open Sans" font-weight="bold"><tspan y="51.25" x="853.23666 857.20169 865.7427">int</tspan></text>
</g>
<g clip-path="url(#clip_40)">
<path transform="matrix(1.1152177,0,0,1.1152177,799.4798,131.89344)" d="M0 0H209.37737V32H0Z" fill="#f2f2f2"/>
<text fill="#6f6f6f" xml:space="preserve" transform="matrix(1.1152177 0 0 1.1152177 50 60.519506)" font-size="13" font-family="Open Sans"><tspan y="83.25" x="682.048 688.535 691.811 699.75399 707.047 714.86 720.541 723.817">video_id</tspan></text>
<text fill="#999999" xml:space="preserve" transform="matrix(1.1152177 0 0 1.1152177 50 60.519506)" font-size="13" font-family="Open Sans"><tspan y="83.25" x="855.51968 858.79568 866.76467">int</tspan></text>
</g>
<g clip-path="url(#clip_41)">
<path transform="matrix(1.1152177,0,0,1.1152177,799.4798,167.5804)" d="M0 0H209.37737V32H0Z" fill="#f2f2f2"/>
<text fill="#6f6f6f" xml:space="preserve" transform="matrix(1.1152177 0 0 1.1152177 50 60.519506)" font-size="13" font-family="Open Sans"><tspan y="115.25" x="682.048 690.01699 697.95999 701.23599 709.04898 716.264 724.207 731.5 736.804 742.48507 745.76107">uploader_id</tspan></text>
<text fill="#999999" xml:space="preserve" transform="matrix(1.1152177 0 0 1.1152177 50 60.519506)" font-size="13" font-family="Open Sans"><tspan y="115.25" x="855.51968 858.79568 866.76467">int</tspan></text>
</g>
<g clip-path="url(#clip_42)">
<path transform="matrix(1.1152177,0,0,1.1152177,799.4798,203.26737)" d="M0 0H209.37737V32H0Z" fill="#f2f2f2"/>
<text fill="#6f6f6f" xml:space="preserve" transform="matrix(1.1152177 0 0 1.1152177 50 60.519506)" font-size="13" font-family="Open Sans"><tspan y="147.25" x="682.048 690.01699 697.95999 701.23599 709.04898 716.264 724.207 729.888 737.831 745.046 749.674">upload_date</tspan></text>
<text fill="#999999" xml:space="preserve" transform="matrix(1.1152177 0 0 1.1152177 50 60.519506)" font-size="13" font-family="Open Sans"><tspan y="147.25" x="817.01028 824.95327 832.1683 836.79629 844.0893 848.7173 851.9933 864.0183">datetime</tspan></text>
</g>
<g clip-path="url(#clip_43)">
<path transform="matrix(1.1152177,0,0,1.1152177,799.4798,238.95433)" d="M0 0H209.37737V32H0Z" fill="#f2f2f2"/>
<text fill="#6f6f6f" xml:space="preserve" transform="matrix(1.1152177 0 0 1.1152177 50 60.519506)" font-size="13" font-family="Open Sans"><tspan y="179.25" x="682.048 688.23599 692.86398 700.079 704.707 712.67599">status</tspan></text>
<text fill="#999999" xml:space="preserve" transform="matrix(1.1152177 0 0 1.1152177 50 60.519506)" font-size="13" font-family="Open Sans"><tspan y="179.25" x="836.9159 843.1039 847.7319 853.0359 856.3119 864.2809">string</tspan></text>
</g>
<g clip-path="url(#clip_44)">
<path transform="matrix(1.1152177,0,0,1.1152177,1079.8679,640.7437)" d="M0 0H200.24529V32H0Z" fill="#306996"/>
<text fill="#ffffff" xml:space="preserve" transform="matrix(1.1152177 0 0 1.1152177 50 60.519506)" font-size="13" font-family="Open Sans" font-weight="bold"><tspan y="539.5289" x="933.468 941.515 947.417 955.633 963.303 969.20498">orders</tspan></text>
</g>
<g clip-path="url(#clip_45)">
<path transform="matrix(1.1152177,0,0,1.1152177,1079.8679,676.43069)" d="M0 0H200.24529V32H0Z" fill="#f2f2f2"/>
<text fill="#6f6f6f" xml:space="preserve" transform="matrix(1.1152177 0 0 1.1152177 50 60.519506)" font-size="13" font-family="Open Sans" font-weight="bold"><tspan y="571.5289" x="933.468 941.515 947.417 955.633 963.303 969.20498 974.548 978.513">order_id</tspan></text>
<path transform="matrix(1.1152177,0,0,1.1152177,1155.0293,686.74649)" d="M6.5625 .9844C8.1935 .9844 9.5156 2.3065 9.5156 3.9375 9.5156 5.5685 8.1935 6.8906 6.5625 6.8906 6.1735 6.8906 5.8022 6.8153 5.462 6.6786L4.5938 7.5469H3.9375V8.5313H2.9531V9.5156H.9844V7.5469L3.736 4.7952C3.6518 4.5171 3.6092 4.2281 3.6094 3.9375 3.6094 2.3065 4.9315 .9844 6.5625 .9844ZM6.5625 0C4.388 0 2.625 1.7627 2.625 3.9375 2.625 4.1186 2.6373 4.2989 2.6619 4.4772L.1441 6.995C.0519 7.0873 0 7.2125 0 7.343V10.0078C0 10.2797 .2204 10.5 .4922 10.5H3.4453C3.7171 10.5 3.9375 10.2797 3.9375 10.0078V9.5156H4.4297C4.7015 9.5156 4.9219 9.2953 4.9219 9.0234V8.6133L5.7432 7.7895C6.011 7.8464 6.2848 7.875 6.5625 7.875 8.737 7.875 10.5 6.1123 10.5 3.9375 10.5 1.763 8.7373 0 6.5625 0ZM6.5625 2.9531C6.5625 3.4968 7.0032 3.9375 7.5469 3.9375 8.0905 3.9375 8.5313 3.4968 8.5313 2.9531 8.5313 2.4095 8.0905 1.9688 7.5469 1.9688 7.0032 1.9688 6.5625 2.4095 6.5625 2.9531Z" fill="#707070"/>
<text fill="#999999" xml:space="preserve" transform="matrix(1.1152177 0 0 1.1152177 50 60.519506)" font-size="13" font-family="Open Sans" font-weight="bold"><tspan y="571.5289" x="1095.5247 1099.4896 1108.0307">int</tspan></text>
</g>
<g clip-path="url(#clip_46)">
<path transform="matrix(1.1152177,0,0,1.1152177,1079.8679,712.1177)" d="M0 0H200.24529V32H0Z" fill="#f2f2f2"/>
<text fill="#6f6f6f" xml:space="preserve" transform="matrix(1.1152177 0 0 1.1152177 50 60.519506)" font-size="13" font-family="Open Sans"><tspan y="603.5289" x="933.468 941.437 947.625 954.918 960.22207 965.9031 969.1791">user_id</tspan></text>
<text fill="#999999" xml:space="preserve" transform="matrix(1.1152177 0 0 1.1152177 50 60.519506)" font-size="13" font-family="Open Sans"><tspan y="603.5289" x="1097.8076 1101.0836 1109.0526">int</tspan></text>
</g>
<g clip-path="url(#clip_47)">
<path transform="matrix(1.1152177,0,0,1.1152177,1079.8679,747.8046)" d="M0 0H200.24529V32H0Z" fill="#f2f2f2"/>
<text fill="#6f6f6f" xml:space="preserve" transform="matrix(1.1152177 0 0 1.1152177 50 60.519506)" font-size="13" font-family="Open Sans"><tspan y="635.5289" x="933.468 938.096 945.909 950.537 957.752 961.028 966.70907 974.65206 979.95608 983.23208 989.45907">total_price</tspan></text>
<text fill="#999999" xml:space="preserve" transform="matrix(1.1152177 0 0 1.1152177 50 60.519506)" font-size="13" font-family="Open Sans"><tspan y="635.5289" x="1086.3547 1090.7228 1093.9988 1101.8118 1109.0267">float</tspan></text>
</g>
<g clip-path="url(#clip_48)">
<path transform="matrix(1.1152177,0,0,1.1152177,1079.8679,783.4916)" d="M0 0H200.24529V32H0Z" fill="#f2f2f2"/>
<text fill="#6f6f6f" xml:space="preserve" transform="matrix(1.1152177 0 0 1.1152177 50 60.519506)" font-size="13" font-family="Open Sans"><tspan y="667.5289" x="933.468 941.281 946.585 954.528 961.82107 967.12509 972.8061 980.7491 987.9641 992.5921">order_date</tspan></text>
<text fill="#999999" xml:space="preserve" transform="matrix(1.1152177 0 0 1.1152177 50 60.519506)" font-size="13" font-family="Open Sans"><tspan y="667.5289" x="1059.2982 1067.2412 1074.4562 1079.0842 1086.3772 1091.0053 1094.2813 1106.3063">datetime</tspan></text>
</g>
<g clip-path="url(#clip_49)">
<path transform="matrix(1.1152177,0,0,1.1152177,1472.4685,802.1197)" d="M0 0H210.84906V32H0Z" fill="#306996"/>
<text fill="#ffffff" xml:space="preserve" transform="matrix(1.1152177 0 0 1.1152177 50 60.519506)" font-size="13" font-family="Open Sans" font-weight="bold"><tspan y="684.2324" x="1285.5075 1293.5545 1299.4564 1307.6724 1315.3424 1321.2444 1326.5874 1334.8034 1342.4734 1348.1154 1355.9674 1359.9324 1363.8973">order_details</tspan></text>
</g>
<g clip-path="url(#clip_50)">
<path transform="matrix(1.1152177,0,0,1.1152177,1472.4685,837.80667)" d="M0 0H210.84906V32H0Z" fill="#f2f2f2"/>
<text fill="#6f6f6f" xml:space="preserve" transform="matrix(1.1152177 0 0 1.1152177 50 60.519506)" font-size="13" font-family="Open Sans" font-weight="bold"><tspan y="716.2324" x="1285.5075 1289.4724">id</tspan></text>
<path transform="matrix(1.1152177,0,0,1.1152177,1501.7167,848.12246)" d="M6.5625 .9844C8.1935 .9844 9.5156 2.3065 9.5156 3.9375 9.5156 5.5685 8.1935 6.8906 6.5625 6.8906 6.1735 6.8906 5.8022 6.8153 5.462 6.6786L4.5938 7.5469H3.9375V8.5313H2.9531V9.5156H.9844V7.5469L3.736 4.7952C3.6518 4.5171 3.6092 4.2281 3.6094 3.9375 3.6094 2.3065 4.9315 .9844 6.5625 .9844ZM6.5625 0C4.388 0 2.625 1.7627 2.625 3.9375 2.625 4.1186 2.6373 4.2989 2.6619 4.4772L.1441 6.995C.0519 7.0873 0 7.2125 0 7.343V10.0078C0 10.2797 .2204 10.5 .4922 10.5H3.4453C3.7171 10.5 3.9375 10.2797 3.9375 10.0078V9.5156H4.4297C4.7015 9.5156 4.9219 9.2953 4.9219 9.0234V8.6133L5.7432 7.7895C6.011 7.8464 6.2848 7.875 6.5625 7.875 8.737 7.875 10.5 6.1123 10.5 3.9375 10.5 1.763 8.7373 0 6.5625 0ZM6.5625 2.9531C6.5625 3.4968 7.0032 3.9375 7.5469 3.9375 8.0905 3.9375 8.5313 3.4968 8.5313 2.9531 8.5313 2.4095 8.0905 1.9688 7.5469 1.9688 7.0032 1.9688 6.5625 2.4095 6.5625 2.9531Z" fill="#707070"/>
<text fill="#999999" xml:space="preserve" transform="matrix(1.1152177 0 0 1.1152177 50 60.519506)" font-size="13" font-family="Open Sans" font-weight="bold"><tspan y="716.2324" x="1458.1679 1462.1328 1470.6738">int</tspan></text>
</g>
<g clip-path="url(#clip_51)">
<path transform="matrix(1.1152177,0,0,1.1152177,1472.4685,873.4936)" d="M0 0H210.84906V32H0Z" fill="#f2f2f2"/>
<text fill="#6f6f6f" xml:space="preserve" transform="matrix(1.1152177 0 0 1.1152177 50 60.519506)" font-size="13" font-family="Open Sans"><tspan y="748.2324" x="1285.5075 1293.3204 1298.6244 1306.5674 1313.8604 1319.1643 1324.8453 1328.1213">order_id</tspan></text>
<text fill="#999999" xml:space="preserve" transform="matrix(1.1152177 0 0 1.1152177 50 60.519506)" font-size="13" font-family="Open Sans"><tspan y="748.2324" x="1460.4508 1463.7268 1471.6958">int</tspan></text>
</g>
<g clip-path="url(#clip_52)">
<path transform="matrix(1.1152177,0,0,1.1152177,1472.4685,909.1806)" d="M0 0H210.84906V32H0Z" fill="#f2f2f2"/>
<text fill="#6f6f6f" xml:space="preserve" transform="matrix(1.1152177 0 0 1.1152177 50 60.519506)" font-size="13" font-family="Open Sans"><tspan y="780.2324" x="1285.5075 1290.8114 1298.1044 1304.2924 1312.1054 1315.3814 1323.3504 1327.9784 1331.2544 1339.0674">resolution</tspan></text>
<text fill="#999999" xml:space="preserve" transform="matrix(1.1152177 0 0 1.1152177 50 60.519506)" font-size="13" font-family="Open Sans"><tspan y="780.2324" x="1407.9602 1414.4473 1421.6622 1426.9662 1433.1932 1441.1622 1448.3772 1453.6812 1457.5032 1464.9262 1472.3491">varchar(20)</tspan></text>
</g>
<g clip-path="url(#clip_53)">
<path transform="matrix(1.1152177,0,0,1.1152177,1472.4685,944.86758)" d="M0 0H210.84906V32H0Z" fill="#f2f2f2"/>
<text fill="#6f6f6f" xml:space="preserve" transform="matrix(1.1152177 0 0 1.1152177 50 60.519506)" font-size="13" font-family="Open Sans"><tspan y="812.2324" x="1285.5075 1293.4505 1298.7544 1302.0304 1308.2575">price</tspan></text>
<text fill="#999999" xml:space="preserve" transform="matrix(1.1152177 0 0 1.1152177 50 60.519506)" font-size="13" font-family="Open Sans"><tspan y="812.2324" x="1448.9979 1453.366 1456.642 1464.455 1471.6699">float</tspan></text>
</g>
<g clip-path="url(#clip_54)">
<path transform="matrix(1.1152177,0,0,1.1152177,632.0889,805.35879)" d="M0 0H254.67925V32H0Z" fill="#306996"/>
<text fill="#ffffff" xml:space="preserve" transform="matrix(1.1152177 0 0 1.1152177 50 60.519506)" font-size="13" font-family="Open Sans" font-weight="bold"><tspan y="687.13687" x="531.9509 540.16696 548.0189 555.4029 568.1559 575.82589 584.3669">payment</tspan></text>
</g>
<g clip-path="url(#clip_55)">
<path transform="matrix(1.1152177,0,0,1.1152177,632.0889,841.0457)" d="M0 0H254.67925V32H0Z" fill="#f2f2f2"/>
<text fill="#6f6f6f" xml:space="preserve" transform="matrix(1.1152177 0 0 1.1152177 50 60.519506)" font-size="13" font-family="Open Sans" font-weight="bold"><tspan y="719.13687" x="531.9509 540.16696 548.0189 555.4029 568.1559 575.82589 584.3669 590.0089 595.3519 599.31698">payment_id</tspan></text>
<path transform="matrix(1.1152177,0,0,1.1152177,732.24807,851.36148)" d="M6.5625 .9844C8.1935 .9844 9.5156 2.3065 9.5156 3.9375 9.5156 5.5685 8.1935 6.8906 6.5625 6.8906 6.1735 6.8906 5.8022 6.8153 5.462 6.6786L4.5938 7.5469H3.9375V8.5313H2.9531V9.5156H.9844V7.5469L3.736 4.7952C3.6518 4.5171 3.6092 4.2281 3.6094 3.9375 3.6094 2.3065 4.9315 .9844 6.5625 .9844ZM6.5625 0C4.388 0 2.625 1.7627 2.625 3.9375 2.625 4.1186 2.6373 4.2989 2.6619 4.4772L.1441 6.995C.0519 7.0873 0 7.2125 0 7.343V10.0078C0 10.2797 .2204 10.5 .4922 10.5H3.4453C3.7171 10.5 3.9375 10.2797 3.9375 10.0078V9.5156H4.4297C4.7015 9.5156 4.9219 9.2953 4.9219 9.0234V8.6133L5.7432 7.7895C6.011 7.8464 6.2848 7.875 6.5625 7.875 8.737 7.875 10.5 6.1123 10.5 3.9375 10.5 1.763 8.7373 0 6.5625 0ZM6.5625 2.9531C6.5625 3.4968 7.0032 3.9375 7.5469 3.9375 8.0905 3.9375 8.5313 3.4968 8.5313 2.9531 8.5313 2.4095 8.0905 1.9688 7.5469 1.9688 7.0032 1.9688 6.5625 2.4095 6.5625 2.9531Z" fill="#707070"/>
<text fill="#999999" xml:space="preserve" transform="matrix(1.1152177 0 0 1.1152177 50 60.519506)" font-size="13" font-family="Open Sans" font-weight="bold"><tspan y="719.13687" x="748.44149 752.4065 760.9475">int</tspan></text>
</g>
<g clip-path="url(#clip_56)">
<path transform="matrix(1.1152177,0,0,1.1152177,632.0889,876.73269)" d="M0 0H254.67925V32H0Z" fill="#f2f2f2"/>
<text fill="#6f6f6f" xml:space="preserve" transform="matrix(1.1152177 0 0 1.1152177 50 60.519506)" font-size="13" font-family="Open Sans"><tspan y="751.13687" x="531.9509 539.7639 545.06796 553.0109 560.30398 565.608 571.289 574.565">order_id</tspan></text>
<text fill="#999999" xml:space="preserve" transform="matrix(1.1152177 0 0 1.1152177 50 60.519506)" font-size="13" font-family="Open Sans"><tspan y="751.13687" x="750.7245 754.0005 761.9695">int</tspan></text>
</g>
<g clip-path="url(#clip_57)">
<path transform="matrix(1.1152177,0,0,1.1152177,632.0889,912.4196)" d="M0 0H254.67925V32H0Z" fill="#f2f2f2"/>
<text fill="#6f6f6f" xml:space="preserve" transform="matrix(1.1152177 0 0 1.1152177 50 60.519506)" font-size="13" font-family="Open Sans"><tspan y="783.13687" x="531.9509 539.16598 551.191 559.00399 566.97299 574.94198">amount</tspan></text>
<text fill="#999999" xml:space="preserve" transform="matrix(1.1152177 0 0 1.1152177 50 60.519506)" font-size="13" font-family="Open Sans"><tspan y="783.13687" x="739.27169 743.63967 746.91567 754.72866 761.94369">float</tspan></text>
</g>
<g clip-path="url(#clip_58)">
<path transform="matrix(1.1152177,0,0,1.1152177,632.0889,948.1066)" d="M0 0H254.67925V32H0Z" fill="#f2f2f2"/>
<text fill="#6f6f6f" xml:space="preserve" transform="matrix(1.1152177 0 0 1.1152177 50 60.519506)" font-size="13" font-family="Open Sans"><tspan y="815.13687" x="531.9509 539.8939 547.10897 553.60897 565.634 572.927 580.896 585.524 591.712 597.393 603.581 608.209 615.424 620.052 628.021">payments_status</tspan></text>
<text fill="#999999" xml:space="preserve" transform="matrix(1.1152177 0 0 1.1152177 50 60.519506)" font-size="13" font-family="Open Sans"><tspan y="815.13687" x="698.23397 704.72097 711.936 717.24 723.467 731.436 738.651 743.955 747.77706 755.2 762.623">varchar(20)</tspan></text>
</g>
<g clip-path="url(#clip_59)">
<path transform="matrix(1.1152177,0,0,1.1152177,632.0889,983.7936)" d="M0 0H254.67925V32H0Z" fill="#f2f2f2"/>
<text fill="#6f6f6f" xml:space="preserve" transform="matrix(1.1152177 0 0 1.1152177 50 60.519506)" font-size="13" font-family="Open Sans"><tspan y="847.13687" x="531.9509 539.8939 547.10897 553.60897 565.634 572.927 580.896 585.524 591.205 599.148 606.36306 610.991">payment_date</tspan></text>
<text fill="#999999" xml:space="preserve" transform="matrix(1.1152177 0 0 1.1152177 50 60.519506)" font-size="13" font-family="Open Sans"><tspan y="847.13687" x="712.2151 720.1581 727.3731 732.0011 739.2941 743.9221 747.1981 759.22317">datetime</tspan></text>
</g>
<g clip-path="url(#clip_60)">
<path transform="matrix(1.1152177,0,0,1.1152177,50,189.19226)" d="M0 0H200.77359V32H0Z" fill="#306996"/>
<text fill="#ffffff" xml:space="preserve" transform="matrix(1.1152177 0 0 1.1152177 50 60.519506)" font-size="13" font-family="Open Sans" font-weight="bold"><tspan y="134.62906" x="10 17.852002 26.393002 34.609 38.574 44.216005 49.559007 53.524007 61.571008 68.90301">audit_logs</tspan></text>
</g>
<g clip-path="url(#clip_61)">
<path transform="matrix(1.1152177,0,0,1.1152177,50,224.87923)" d="M0 0H200.77359V32H0Z" fill="#f2f2f2"/>
<text fill="#6f6f6f" xml:space="preserve" transform="matrix(1.1152177 0 0 1.1152177 50 60.519506)" font-size="13" font-family="Open Sans" font-weight="bold"><tspan y="166.62906" x="10 13.965 22.012001 29.344002 34.687005 38.652006">log_id</tspan></text>
<path transform="matrix(1.1152177,0,0,1.1152177,106.85506,235.19499)" d="M6.5625 .9844C8.1935 .9844 9.5156 2.3065 9.5156 3.9375 9.5156 5.5685 8.1935 6.8906 6.5625 6.8906 6.1735 6.8906 5.8022 6.8153 5.462 6.6786L4.5938 7.5469H3.9375V8.5313H2.9531V9.5156H.9844V7.5469L3.736 4.7952C3.6518 4.5171 3.6092 4.2281 3.6094 3.9375 3.6094 2.3065 4.9315 .9844 6.5625 .9844ZM6.5625 0C4.388 0 2.625 1.7627 2.625 3.9375 2.625 4.1186 2.6373 4.2989 2.6619 4.4772L.1441 6.995C.0519 7.0873 0 7.2125 0 7.343V10.0078C0 10.2797 .2204 10.5 .4922 10.5H3.4453C3.7171 10.5 3.9375 10.2797 3.9375 10.0078V9.5156H4.4297C4.7015 9.5156 4.9219 9.2953 4.9219 9.0234V8.6133L5.7432 7.7895C6.011 7.8464 6.2848 7.875 6.5625 7.875 8.737 7.875 10.5 6.1123 10.5 3.9375 10.5 1.763 8.7373 0 6.5625 0ZM6.5625 2.9531C6.5625 3.4968 7.0032 3.9375 7.5469 3.9375 8.0905 3.9375 8.5313 3.4968 8.5313 2.9531 8.5313 2.4095 8.0905 1.9688 7.5469 1.9688 7.0032 1.9688 6.5625 2.4095 6.5625 2.9531Z" fill="#707070"/>
<text fill="#999999" xml:space="preserve" transform="matrix(1.1152177 0 0 1.1152177 50 60.519506)" font-size="13" font-family="Open Sans" font-weight="bold"><tspan y="166.62906" x="172.58492 176.54991 185.09091">int</tspan></text>
</g>
<g clip-path="url(#clip_62)">
<path transform="matrix(1.1152177,0,0,1.1152177,50,260.5662)" d="M0 0H200.77359V32H0Z" fill="#f2f2f2"/>
<text fill="#6f6f6f" xml:space="preserve" transform="matrix(1.1152177 0 0 1.1152177 50 60.519506)" font-size="13" font-family="Open Sans"><tspan y="198.62906" x="10 17.969 24.157 31.45 36.754 42.435 45.711004">user_id</tspan></text>
<text fill="#999999" xml:space="preserve" transform="matrix(1.1152177 0 0 1.1152177 50 60.519506)" font-size="13" font-family="Open Sans"><tspan y="198.62906" x="174.86794 178.14394 186.11293">int</tspan></text>
</g>
<g clip-path="url(#clip_63)">
<path transform="matrix(1.1152177,0,0,1.1152177,50,296.25318)" d="M0 0H200.77359V32H0Z" fill="#f2f2f2"/>
<text fill="#6f6f6f" xml:space="preserve" transform="matrix(1.1152177 0 0 1.1152177 50 60.519506)" font-size="13" font-family="Open Sans"><tspan y="230.62906" x="10 17.215 23.442002 28.070002 31.346 39.159">action</tspan></text>
<text fill="#999999" xml:space="preserve" transform="matrix(1.1152177 0 0 1.1152177 50 60.519506)" font-size="13" font-family="Open Sans"><tspan y="230.62906" x="114.92453 121.41153 128.62653 133.93053 140.15753 148.12653 155.34152 160.64553 164.46753 171.89054 179.31354 186.73654">varchar(200)</tspan></text>
</g>
<g clip-path="url(#clip_64)">
<path transform="matrix(1.1152177,0,0,1.1152177,50,331.94013)" d="M0 0H200.77359V32H0Z" fill="#f2f2f2"/>
<text fill="#6f6f6f" xml:space="preserve" transform="matrix(1.1152177 0 0 1.1152177 50 60.519506)" font-size="13" font-family="Open Sans"><tspan y="262.62907" x="10 17.943 25.236002 29.864003 37.079004 40.355005 43.631006">details</tspan></text>
<text fill="#999999" xml:space="preserve" transform="matrix(1.1152177 0 0 1.1152177 50 60.519506)" font-size="13" font-family="Open Sans"><tspan y="262.62907" x="160.20755 163.69155 170.81555 180.91655">JSON</tspan></text>
</g>
<g clip-path="url(#clip_65)">
<path transform="matrix(1.1152177,0,0,1.1152177,50,367.6271)" d="M0 0H200.77359V32H0Z" fill="#f2f2f2"/>
<text fill="#6f6f6f" xml:space="preserve" transform="matrix(1.1152177 0 0 1.1152177 50 60.519506)" font-size="13" font-family="Open Sans"><tspan y="294.62907" x="10 14.628 17.904 29.929 37.222 43.41 48.038003 55.253004 67.278">timestamp</tspan></text>
<text fill="#999999" xml:space="preserve" transform="matrix(1.1152177 0 0 1.1152177 50 60.519506)" font-size="13" font-family="Open Sans"><tspan y="294.62907" x="136.35849 144.30149 151.51648 156.14449 163.43749 168.06549 171.34149 183.36649">datetime</tspan></text>
</g>
</g>
</svg>
